<svg preserveAspectRatio="none" width="100%" height="100%" overflow="visible" style="display: block;" viewBox="0 0 24.496 21.7148" fill="none" xmlns="http://www.w3.org/2000/svg">
<g id="Group">
<path id="Vector" d="M10.1214 8.37606L5.76984 21.7147H15.1182L10.7667 8.37606C10.665 8.06337 10.2202 8.06337 10.1185 8.37606H10.1214Z" fill="var(--fill-0, #00DCFF)"/>
<path id="Vector_2" d="M3.72947 12.2645C3.62773 11.9518 3.18299 11.9518 3.08125 12.2645L0 21.7148H2.73824L4.77593 15.4696L3.73238 12.2674L3.72947 12.2645Z" fill="var(--fill-0, #00DCFF)"/>
<path id="Vector_3" d="M8.58078 5.79059C8.47904 5.4779 8.0343 5.4779 7.93256 5.79059L2.73804 21.7147H5.76987L9.77258 9.44735L8.58078 5.79059Z" fill="var(--fill-0, #006AFF)"/>
<path id="Vector_4" d="M20.8508 10.5475C20.7491 10.2349 20.3043 10.2349 20.2026 10.5475L19.1707 13.715L21.781 21.7147H24.496L20.8537 10.5475H20.8508Z" fill="var(--fill-0, #00DCFF)"/>
<path id="Vector_5" d="M14.7726 0.234519C14.6708 -0.078173 14.2261 -0.078173 14.1244 0.234519L11.1187 9.44735L15.1214 21.7147H21.7781L14.7726 0.234519Z" fill="var(--fill-0, #006AFF)"/>
</g>
</svg>
