<svg preserveAspectRatio="none" width="100%" height="100%" overflow="visible" style="display: block;" viewBox="0 0 78.2117 23.2571" fill="none" xmlns="http://www.w3.org/2000/svg">
<g id="Group 4">
<path id="Vector" d="M19.4445 14.4373C19.8747 14.4223 20.2831 14.4785 20.6385 14.7492C21.0461 15.0595 21.1675 15.5036 21.1956 15.9683C21.2535 16.9412 21.1112 17.8928 20.7068 18.7857C20.2542 19.7839 19.6134 20.646 18.7234 21.3236C17.8422 21.9941 16.8324 22.3971 15.7953 22.7501C14.1519 23.3098 12.4708 23.3565 10.7655 23.1293C10.0258 23.0304 9.32557 22.8024 8.62048 22.5752C7.95237 22.3599 7.33732 22.044 6.74076 21.6925C5.39087 20.897 4.28056 19.8496 3.39617 18.5648C2.48526 17.2405 1.9088 15.7886 1.66439 14.2109C1.53334 13.3679 1.55103 12.5208 1.61936 11.6698C1.70539 10.6003 2.02136 9.59024 2.38315 8.592C2.51501 8.22865 2.72887 7.89458 2.89288 7.54152C3.05609 7.18846 3.07136 6.8259 2.80283 6.52033C2.5954 6.28443 2.29713 6.18468 1.97875 6.16806C1.58881 6.14827 1.22702 6.27176 0.866833 6.39446C0.70282 6.45067 0.540415 6.51162 0.374794 6.5615C0.0564153 6.65807 -0.0392593 6.5607 0.0138038 6.23218C0.0861626 5.78412 0.316907 5.42473 0.61599 5.09462C1.22702 4.42016 2.00608 4.0576 2.88243 3.83515C3.60843 3.6515 4.33121 3.60083 5.06686 3.70374C5.30323 3.73699 5.53639 3.79953 5.76713 3.86286C5.94642 3.91194 6.06782 3.8779 6.21013 3.74253C6.69976 3.27627 7.21511 2.83929 7.75378 2.42528C8.53847 1.82206 9.37462 1.30513 10.2719 0.89349C11.6193 0.272859 13.032 -0.0904946 14.5402 0.0195406C15.2534 0.0717876 15.9215 0.287109 16.5357 0.625922C17.5311 1.17531 18.1051 2.01522 18.1574 3.15753C18.167 3.37205 18.2868 3.41243 18.4492 3.42193C18.6695 3.43459 18.8914 3.42193 19.1109 3.43855C19.4679 3.46547 19.8272 3.53117 20.0942 3.77816C20.6401 4.28321 20.5693 5.11125 19.9776 5.57909C19.4341 6.00974 18.8142 6.20368 18.1252 6.22822C17.4338 6.25276 16.7641 6.17835 16.1361 5.8712C16.0959 5.85141 16.0477 5.80629 16.0099 5.8522C15.9673 5.90445 16.0228 5.95432 16.0549 5.98836C16.26 6.20447 16.5196 6.34142 16.7922 6.45146C17.0125 6.54091 17.2416 6.60741 17.4844 6.69053C17.4185 6.77365 17.3445 6.79582 17.269 6.81798C16.268 7.10534 15.2711 7.4022 14.3039 7.78851C13.889 7.95396 13.8416 8.0062 13.8359 8.45664C13.8255 9.26013 13.6944 10.0233 13.196 10.6969C12.7023 11.3643 12.0913 11.8907 11.346 12.2572C10.8781 12.4876 10.3675 12.5644 9.84334 12.52C9.6536 12.5042 9.61019 12.4068 9.734 12.2572C9.95268 11.9928 10.2027 11.7569 10.3796 11.4553C10.55 11.1656 10.6023 10.8647 10.5517 10.5441C10.4986 10.2109 10.1304 10.0019 9.80555 10.1182C8.9485 10.4262 8.31175 11.0175 7.73931 11.6888C7.031 12.5208 6.57514 13.4779 6.30419 14.5244C6.12249 15.2274 6.07667 15.9422 6.15948 16.661C6.27123 17.6252 6.55986 18.5324 7.06959 19.3715C7.61791 20.2747 8.35516 20.9817 9.2492 21.5485C9.8345 21.9197 10.4713 22.1762 11.1305 22.3599C11.7592 22.5348 12.4153 22.5974 13.1308 22.557C12.4772 22.3773 11.9032 22.143 11.3597 21.8406C10.4447 21.3316 9.70586 20.6397 9.16639 19.7515C8.49104 18.6377 8.16944 17.4392 8.25386 16.1322C8.30773 15.301 8.55536 14.5323 8.9067 13.7866C8.91474 13.7692 8.92197 13.7494 8.93484 13.7352C8.99594 13.6702 9.04096 13.5333 9.13744 13.5784C9.23874 13.6259 9.15191 13.7431 9.12779 13.8207C8.76198 14.9946 8.65585 16.1813 8.97262 17.3798C9.19935 18.2363 9.63109 18.9852 10.2807 19.6066C10.4391 19.7578 10.6473 19.8211 10.8282 19.9304C10.8765 20.0262 10.9424 20.1045 11.0373 20.1615C11.6234 20.5154 12.2641 20.7165 12.9411 20.7877C14.221 20.9215 15.386 20.5938 16.3934 19.8116C17.0889 19.2718 17.5672 18.5569 17.8647 17.7328C18.0689 17.1676 18.1188 16.5818 18.1148 15.9842C18.1091 15.1474 18.6373 14.6479 19.4429 14.435L19.4445 14.4373Z" fill="var(--fill-0, #2B79D9)"/>
<path id="Vector_2" d="M19.4446 14.4374C18.639 14.6503 18.1107 15.1498 18.1164 15.9866C18.1204 16.5842 18.0705 17.17 17.8663 17.7352C17.5688 18.5593 17.0897 19.2742 16.395 19.814C15.3876 20.5962 14.2227 20.9239 12.9427 20.7901C12.2666 20.7197 11.625 20.5178 11.0389 20.1639C10.944 20.1069 10.8773 20.0286 10.8298 19.9328C11.0831 19.9755 11.3347 20.0278 11.5896 20.0571C12.4788 20.1592 13.3246 20.0325 14.1222 19.6074C14.5177 19.3969 14.8932 19.1625 15.1874 18.8301C15.5902 18.3749 15.9496 17.888 16.141 17.3006C16.3074 16.7908 16.4167 16.2739 16.4256 15.7364C16.432 15.3572 16.3685 14.9875 16.2857 14.6234C16.141 13.9877 16.4417 13.1803 17.0374 12.9008C17.552 12.6594 18.1188 12.5604 18.643 12.9127C18.9565 13.1241 19.1463 13.4431 19.2854 13.789C19.3698 13.998 19.41 14.2173 19.4446 14.4381V14.4374Z" fill="var(--fill-0, #E49934)"/>
<g id="Union">
<path d="M14.7502 2.71663C14.8543 2.70459 14.8878 2.84249 14.799 2.89827C14.3082 3.20664 14.1779 3.53862 14.3117 3.92562C14.4438 4.30723 14.7629 4.53842 15.1613 4.63167C15.2534 4.6536 15.2782 4.77217 15.1887 4.80355C14.6009 5.00963 13.8388 4.76275 13.6906 4.13558C13.5397 3.49555 13.8057 2.82601 14.7502 2.71663Z" fill="var(--fill-0, white)"/>
<path d="M15.0881 3.16488C15.1953 3.165 15.2824 3.25195 15.2824 3.35921C15.2824 3.46653 15.1954 3.55342 15.0881 3.55355C14.9807 3.55355 14.8938 3.46661 14.8938 3.35921C14.8938 3.25187 14.9807 3.16488 15.0881 3.16488Z" fill="var(--fill-0, white)"/>
</g>
<g id="Union_2">
<path d="M63.619 4.70607C63.8239 4.66468 63.9959 4.66339 63.9872 4.90655C63.9768 5.18763 64.1827 5.57722 63.6837 5.67204C63.0989 5.78408 62.5088 5.87681 61.9258 5.9992C60.924 6.20959 60.9254 6.21697 60.9289 7.21031C60.9306 7.82768 60.955 8.44549 60.9252 9.06114C60.9044 9.47452 61.0814 9.57444 61.4611 9.56418C62.1459 9.54348 62.8312 9.57312 63.516 9.55415C63.8767 9.54383 64.0013 9.66947 63.9908 10.028C63.9803 10.3625 63.9066 10.5347 63.5197 10.5037C63.1431 10.4727 62.7608 10.5129 62.3842 10.4973C62.0131 10.4819 61.8854 10.6061 61.9887 10.9785C62.4283 12.5547 62.8571 14.1329 63.2827 15.7109C63.5367 16.6524 63.775 17.599 64.0254 18.5422C64.0972 18.8129 64.0432 18.9507 63.7247 18.9405C62.3324 18.8974 62.6664 19.1855 62.3022 17.8251C61.9081 16.3558 61.5402 14.8795 61.0656 13.4326C61.0498 13.3827 61.0288 13.3327 60.9362 13.2914V14.179C60.9362 15.6276 60.9259 17.0781 60.9416 18.5268C60.9451 18.8492 60.841 18.9512 60.5188 18.9478C59.4699 18.934 58.421 18.934 57.3721 18.9478C57.0324 18.9529 56.9185 18.8355 56.9219 18.4994C56.9377 17.2077 56.9273 15.9155 56.9255 14.6255V13.6477L56.9219 13.645C56.6366 13.888 56.589 14.1927 56.5173 14.4788C56.1845 15.7998 55.8618 17.1233 55.5641 18.4529C55.4817 18.8165 55.3189 18.9476 54.9444 18.946C53.9269 18.9408 53.9038 18.9475 54.1297 17.9873C54.4309 16.7025 54.7708 15.4258 55.0966 14.1462C55.3645 13.0943 55.6329 12.0425 55.9131 10.994C56.0112 10.6284 55.8843 10.4833 55.5112 10.4919C55.0893 10.5022 54.6656 10.4819 54.2436 10.4992C53.9424 10.5112 53.8564 10.373 53.8809 10.1091C53.9019 9.86771 53.7991 9.56245 54.2299 9.56418C54.9584 9.56762 55.6868 9.53803 56.4152 9.55871C56.7848 9.56906 56.9477 9.47276 56.9319 9.08301C56.9092 8.48123 56.9216 7.87771 56.9374 7.27592C56.9444 6.97412 56.8496 6.86015 56.5273 6.92051C55.7848 7.06018 55.037 7.18074 54.291 7.30143C54.1299 7.3273 53.8725 7.40857 53.8882 7.14834C53.904 6.89142 53.6621 6.49116 54.1242 6.39105C55.0192 6.19619 55.9197 6.02398 56.8217 5.86706C59.0862 5.47215 61.3667 5.16995 63.619 4.70607Z" fill="var(--fill-0, #3280E0)"/>
<path d="M34.4409 4.75244C34.7421 4.74036 34.8581 4.85141 34.8546 5.14976C34.8441 6.09629 34.8665 7.04282 34.8455 7.98935C34.8385 8.33771 34.9824 8.45391 35.3011 8.45047C35.781 8.44357 36.2629 8.44968 36.7428 8.43588C37.2172 8.42221 37.1702 8.74855 37.1912 9.05374C37.2122 9.38307 37.0574 9.47417 36.7474 9.46382C36.238 9.44661 35.7285 9.46777 35.2191 9.45745C34.9599 9.45227 34.8456 9.55397 34.8491 9.80921C34.8561 10.3833 34.8599 10.9556 34.8564 11.5297C34.8564 11.7676 34.949 11.8337 35.1799 11.7648C35.6809 11.6148 36.1838 11.4693 36.69 11.3365C36.8528 11.2934 37.0599 11.1374 37.1702 11.4167C37.2925 11.727 37.1735 12.1459 36.9251 12.2305C36.3892 12.4116 35.8511 12.5991 35.303 12.7354C34.9492 12.8233 34.8438 12.9998 34.8473 13.3396C34.8613 14.8173 34.8583 16.2934 34.8583 17.7712C34.8583 18.6714 34.5775 18.944 33.6563 18.944H31.3844V18.9404L31.3798 18.9349C30.5358 18.9349 29.6896 18.9164 28.8455 18.944C28.4602 18.9561 28.4158 18.7748 28.4245 18.4747C28.4333 18.1764 28.4004 17.89 28.8537 17.9106C29.3179 17.9313 29.7858 17.9074 30.2517 17.9143C30.6508 17.9194 30.8467 17.7351 30.8486 17.3456C30.8521 16.4126 30.8509 15.4809 30.8631 14.5479C30.8683 14.1826 30.6878 14.1222 30.3938 14.2427C29.9227 14.4341 29.4385 14.5911 28.9376 14.6773C28.7678 14.7069 28.5385 14.9083 28.4282 14.588C28.3109 14.2484 28.4543 13.8512 28.7344 13.7597C29.3 13.5752 29.8677 13.3923 30.4403 13.2302C30.7626 13.1388 30.8702 12.9593 30.8631 12.6351C30.8456 11.7317 30.8475 10.8283 30.8668 9.92494C30.8755 9.55602 30.7106 9.44507 30.371 9.45016C29.8615 9.45878 29.3497 9.42279 28.8419 9.4538C28.427 9.47793 28.442 9.23674 28.4455 8.96444C28.449 8.68682 28.409 8.41191 28.8537 8.43771C29.3757 8.46702 29.9012 8.43456 30.4266 8.44318C30.7402 8.44835 30.8962 8.31526 30.8577 8.00484C30.814 7.65317 30.9454 7.36139 31.152 7.08899C31.6405 6.44412 31.959 5.69566 32.4616 5.05772C32.635 4.8387 32.8179 4.74736 33.0876 4.75426C33.5393 4.7646 33.991 4.76967 34.4409 4.75244Z" fill="var(--fill-0, #3280E0)"/>
<path d="M77.5946 11.3421C78.1443 11.3421 78.1808 11.3959 78.1633 11.8907C78.151 12.2459 77.9514 12.3136 77.6484 12.3136C76.426 12.3153 75.2019 12.3393 73.9795 12.3272C73.6169 12.3238 73.4875 12.4273 73.512 12.7929C73.5435 13.2636 73.5271 13.7394 73.5166 14.2118C73.5096 14.5032 73.6273 14.6172 73.9303 14.6155C75.1527 14.6086 76.3768 14.6168 77.5992 14.6237C78.1053 14.6271 78.3528 15.0367 78.1286 15.4885C78.0341 15.6777 77.8607 15.6326 77.7085 15.6325C76.486 15.6377 75.2613 15.6497 74.0387 15.6325C73.6465 15.6273 73.484 15.7419 73.512 16.1437C73.5418 16.5713 73.5358 17.004 73.5147 17.4332C73.4955 17.7971 73.6556 17.904 74.0041 17.8989C75.2422 17.8834 76.4804 17.9167 77.7167 17.877C78.2597 17.8598 78.1408 18.1839 78.1724 18.4839C78.209 18.8389 78.0825 18.9476 77.7131 18.9441C75.6605 18.9269 73.6062 18.935 71.5536 18.935H65.5263C65.0133 18.9349 64.7352 18.463 64.9768 18.0164C65.0767 17.8336 65.2554 17.897 65.406 17.8952C66.6004 17.8901 67.7948 17.878 68.9874 17.8952C69.3745 17.9004 69.5466 17.7989 69.5151 17.3885C69.48 16.9471 69.4867 16.4985 69.506 16.0553C69.5217 15.6984 69.3463 15.6245 69.0294 15.6279C67.8507 15.6417 66.6703 15.6278 65.4899 15.6416C65.1554 15.645 64.9325 15.6087 64.9413 15.1896C64.9501 14.8121 65.0327 14.5996 65.4771 14.6064C66.6419 14.6253 67.809 14.6001 68.9738 14.6173C69.3834 14.6224 69.5564 14.4999 69.5215 14.0742C69.4847 13.6327 69.4957 13.1841 69.5132 12.7409C69.5273 12.4185 69.3938 12.3101 69.0786 12.3136C67.8999 12.3256 66.7195 12.3235 65.5391 12.3218C64.9734 12.3218 64.9132 12.2425 64.9395 11.6975C64.9517 11.4371 65.068 11.3423 65.3167 11.3458C65.6809 11.3509 66.0452 11.3458 66.4094 11.3458C70.1383 11.3458 73.8675 11.3421 77.5946 11.3421Z" fill="var(--fill-0, #3280E0)"/>
<path d="M50.6109 14.3392C50.9961 14.3358 51.1237 14.4346 50.9608 14.7967C50.9312 14.8621 50.912 14.9309 50.8806 14.9963C50.6442 15.4947 50.5828 15.8913 51.1486 16.2949C51.6967 16.6846 51.7333 17.3624 51.658 17.9935C51.5459 18.942 51.532 18.9403 50.5671 18.9385H49.7807C49.3288 18.9385 48.8766 18.9335 48.4265 18.9404C48.1763 18.9438 48.0656 18.9008 48.1267 18.5977C48.3194 17.639 47.924 17.1281 46.9083 16.9556C46.241 16.8418 46.2285 16.8224 46.4773 16.1946C46.4877 16.1689 46.4979 16.1411 46.5101 16.1154C46.8428 15.3291 46.8431 15.326 45.9569 15.3225C45.2003 15.3191 44.4417 15.3279 43.6851 15.3262C43.447 15.3262 43.3051 15.3951 43.1966 15.6433C42.8271 16.5021 42.5508 17.392 42.2443 18.2715C42.0131 18.9353 42.0284 18.9404 41.3002 18.9404C40.3964 18.9404 39.4938 18.9421 38.59 18.9404C38.0036 18.9404 38.0243 18.9334 38.1854 18.3991C38.4498 17.5179 38.8601 16.692 39.1614 15.8247C39.3173 15.3763 39.2909 15.3433 38.8023 15.3244C38.7289 15.3209 38.6571 15.3206 38.5836 15.3189C37.9969 15.3034 38.0057 15.2912 38.0022 14.7393C38.0005 14.3894 38.1717 14.3511 38.4624 14.3511C40.6903 14.3563 42.9198 14.3518 45.1477 14.3484C46.9692 14.3484 48.7893 14.3548 50.6109 14.3392Z" fill="var(--fill-0, #3280E0)"/>
<path fill-rule="evenodd" clip-rule="evenodd" d="M40.717 4.61665C41.2213 4.66491 41.7365 4.63022 42.2461 4.6285C42.5174 4.62855 42.6289 4.69763 42.4749 4.98208C42.3627 5.18897 42.0552 5.41863 42.1778 5.59447C42.3075 5.78024 42.6642 5.66872 42.9232 5.67375C43.389 5.6841 43.8553 5.66635 44.3211 5.68013C44.6329 5.68875 44.7613 5.58049 44.7631 5.25638C44.7631 4.64589 44.7821 4.64025 45.3846 4.63852C46.36 4.63508 47.3372 4.64775 48.3126 4.63397C48.626 4.62879 48.7091 4.75604 48.7127 5.0404C48.7197 5.67318 48.7316 5.67385 49.367 5.67558C49.9502 5.67558 50.5343 5.68947 51.1157 5.6774C51.5042 5.66894 51.5235 5.898 51.5112 6.1859C51.499 6.45482 51.5234 6.7016 51.1121 6.6862C50.4868 6.66206 49.8591 6.69606 49.2321 6.67709C48.8313 6.66514 48.6667 6.82575 48.7017 7.21019C48.7105 7.31017 48.7122 7.41185 48.7017 7.51183C48.6702 7.88249 48.8226 8.02098 49.2111 8.00211C49.8364 7.97107 50.4641 8.00194 51.0911 7.98297C51.4377 7.97273 51.511 8.13997 51.504 8.43133C51.4987 8.70542 51.5146 8.94537 51.1085 8.93163C50.4676 8.91094 49.8265 8.93679 49.1856 8.93163C48.8371 8.92818 48.7001 9.06055 48.7036 9.41917C48.7123 10.2297 48.6966 10.2302 49.5301 10.2302C50.0538 10.2302 50.5793 10.2449 51.103 10.2311C51.5409 10.2208 51.4888 10.5128 51.4976 10.787C51.5063 11.0628 51.4743 11.2538 51.1066 11.2418C50.4675 11.2211 49.8247 11.2598 49.1838 11.2408C48.837 11.2305 48.6893 11.315 48.6981 11.6892C48.7243 12.7597 48.6144 12.5301 49.5793 12.5577C50.075 12.5715 50.5708 12.5843 51.0647 12.5549C51.4725 12.5309 51.4971 12.7406 51.5076 13.0525C51.5181 13.3905 51.3971 13.5099 51.0556 13.5081C48.9575 13.4995 46.8594 13.5027 44.7631 13.5027V13.5063H38.6009C37.9934 13.5063 37.9968 13.5013 37.9986 12.9067C38.0003 11.1132 38.0356 9.3173 37.9831 7.5255C37.9587 6.68406 38.5184 6.20436 38.9299 5.61634C38.979 5.54739 39.0742 5.50093 39.104 5.42679C39.3965 4.67512 39.9849 4.54595 40.717 4.61665ZM44.2546 11.2354C43.7765 11.2509 43.2965 11.2383 42.8184 11.2418C41.906 11.2504 41.8833 11.2838 41.9481 12.1995C41.9657 12.451 42.0584 12.5616 42.3172 12.5531C42.6657 12.5428 43.0148 12.5513 43.3615 12.5513V12.5577H43.8837C44.7399 12.5542 44.7192 12.5525 44.7595 11.7266C44.7787 11.3301 44.6154 11.2233 44.2546 11.2354ZM44.2984 8.92981C43.8185 8.94187 43.3365 8.92808 42.8567 8.92981C41.8676 8.93153 41.8627 8.93824 41.9572 9.91218C41.9572 9.92598 41.9599 9.94213 41.9582 9.95592C41.9548 10.1522 42.0496 10.24 42.2507 10.2384C42.615 10.2333 42.9799 10.2384 43.3424 10.2384L43.3442 10.2348H43.9111C44.7745 10.2313 44.7628 10.2312 44.754 9.39821C44.7504 9.07254 44.6398 8.92291 44.2984 8.92981ZM44.3667 6.68255C43.8588 6.68945 43.349 6.67758 42.8394 6.6862C41.8571 6.70342 41.9658 6.54285 41.9518 7.65491C41.9483 7.89621 42.0618 7.98814 42.2962 7.98479C42.6448 7.97962 42.9939 7.98479 43.3442 7.98479V7.98297C43.5192 7.98469 43.6924 7.98308 43.8673 7.98479C44.8113 7.98824 44.8051 7.9879 44.7613 7.06894C44.749 6.79647 44.6417 6.67911 44.3667 6.68255Z" fill="var(--fill-0, #3280E0)"/>
<path fill-rule="evenodd" clip-rule="evenodd" d="M71.7477 4.79082C73.105 4.57183 74.4711 4.49554 75.8249 4.78171C77.2663 5.08523 78.2247 6.01552 78.1669 7.63315C78.1406 8.37801 78.1457 9.1246 78.1633 9.86946C78.172 10.2075 78.058 10.3141 77.7113 10.3124C75.6587 10.2986 73.6062 10.306 71.5555 10.306V10.3142C69.5325 10.3142 67.5092 10.3043 65.4862 10.3233C65.0608 10.3267 64.938 10.1886 64.9431 9.78198C64.9641 8.20586 64.9626 6.62757 64.9486 5.05145C64.9451 4.72724 65.0554 4.62881 65.3742 4.63225C66.4075 4.64433 67.441 4.63905 68.4744 4.63043C68.7579 4.62872 68.9556 4.66827 68.94 5.02138C68.9295 5.25247 69.0909 5.28057 69.3046 5.23918C70.1172 5.08053 70.9298 4.9236 71.7477 4.79082ZM72.7256 5.83243C71.9042 5.81174 71.1086 5.94425 70.317 6.16323C68.9351 6.54435 68.9295 6.52749 68.94 7.91747H68.9382C68.9382 8.26045 68.9435 8.60516 68.9382 8.94814C68.933 9.22749 69.033 9.36266 69.3447 9.36096C70.8282 9.35234 72.3137 9.35689 73.7972 9.36552C74.0825 9.36546 74.1787 9.25209 74.1718 8.97639C74.156 8.40384 74.1723 7.82933 74.1618 7.25678C74.146 6.46365 73.5258 5.85162 72.7256 5.83243Z" fill="var(--fill-0, #3280E0)"/>
</g>
</g>
</svg>
