<svg preserveAspectRatio="none" width="100%" height="100%" overflow="visible" style="display: block;" viewBox="0 0 103.563 24.4282" fill="none" xmlns="http://www.w3.org/2000/svg">
<g id="Group 5">
<g id="Union">
<path d="M5.10872 14.3762C5.20907 14.3525 5.31557 14.3533 5.36007 14.464C5.40741 14.5832 5.48775 14.695 5.51425 14.8114C5.6146 15.2411 5.83129 15.6171 6.03673 15.9948C6.26106 16.4055 6.54324 16.7811 6.84138 17.1474C7.20109 17.5884 7.61679 17.969 8.05506 18.3191C8.30215 18.517 8.57781 18.6913 8.86088 18.8503C9.09747 18.9838 9.33971 19.1125 9.58292 19.2279C9.75521 19.3093 9.93724 19.3898 10.1199 19.4589C10.368 19.5526 10.6332 19.582 10.8775 19.6975C11.0374 19.7732 11.2439 19.7569 11.4314 19.7673C11.6338 19.7778 11.8013 19.9064 12.0056 19.9197C12.1069 19.9264 12.1243 20.046 12.0609 20.1199C11.9085 20.2969 11.749 20.4708 11.5786 20.6307C11.3372 20.8569 11.0922 21.0813 10.8309 21.2829C10.5573 21.494 10.2875 21.7102 9.98554 21.8863C9.79061 21.9998 9.59748 22.1207 9.40255 22.2371C9.24067 22.3337 9.08127 22.435 8.90044 22.5013C8.72251 22.5666 8.55306 22.6567 8.38553 22.7456C8.24075 22.8223 8.07039 22.8817 7.92939 22.912C7.61886 22.9783 7.31299 23.0799 7.0072 23.1547C6.54343 23.2682 6.06631 23.2177 5.612 23.3472C5.43406 23.3983 5.2511 23.3768 5.07032 23.3862V23.3874C4.59602 23.4006 4.12912 23.2917 3.66523 23.232C3.39449 23.197 3.09626 23.1214 2.81984 22.9993C2.5491 22.88 2.26498 22.7798 2.0018 22.6397C1.52655 22.387 1.11026 22.061 0.766599 21.6378C0.617968 21.4552 0.469271 21.2686 0.372707 21.0613C0.279963 20.8635 0.194887 20.6571 0.124852 20.4451C0.0188468 20.1224 -0.00963624 19.7995 0.00266978 19.4758C0.0168464 19.1077 -0.0173269 18.7329 0.0451426 18.3733C0.0886741 18.1225 0.121801 17.8557 0.262743 17.6239C0.33749 17.4999 0.368769 17.3531 0.427398 17.2178C0.610114 16.8022 0.892284 16.4753 1.21227 16.1629C1.53888 15.8439 1.90522 15.592 2.30377 15.3734C2.64172 15.1879 2.97705 15.0142 3.34814 14.894C3.60367 14.8107 3.8526 14.6932 4.11381 14.6194C4.44221 14.5266 4.77653 14.4547 5.10872 14.3762Z" fill="var(--fill-0, #E5156F)"/>
<path d="M7.63382 14.1044C7.8023 14.0751 7.91995 14.2082 8.02597 14.4675C8.22001 14.9426 8.51707 15.3517 8.86728 15.7236C9.09449 15.965 9.32488 16.2076 9.60037 16.3951C9.81333 16.5399 10.0263 16.6856 10.2497 16.818C10.5393 16.9903 10.8705 17.0556 11.1573 17.2259C11.2189 17.2628 11.311 17.2439 11.3848 17.2666C11.8563 17.4115 12.341 17.4392 12.8295 17.4307C12.978 17.4279 13.1266 17.4145 13.2751 17.4098C13.4361 17.4041 13.5205 17.4657 13.4893 17.6437C13.4428 17.9077 13.3322 18.1474 13.2309 18.3925C13.1277 18.6413 12.9668 18.8562 12.858 19.0994C12.7226 19.4004 12.5101 19.5537 12.1703 19.5509V19.5491C11.9563 19.499 11.6761 19.5751 11.4244 19.4199C11.3458 19.3719 11.2201 19.407 11.1189 19.3891C10.8141 19.3352 10.5261 19.2307 10.2392 19.1133C10.0764 19.0471 9.90504 18.9972 9.73943 18.9301C9.47627 18.8222 9.23026 18.6826 8.98888 18.5397C8.77595 18.4138 8.55715 18.2957 8.36691 18.133C7.93431 17.7657 7.48802 17.4165 7.13113 16.9641C6.90392 16.6754 6.66606 16.3957 6.4824 16.0786C6.32911 15.8137 6.16432 15.5554 6.04603 15.2669C5.98261 15.1117 5.93158 14.9458 5.85112 14.7991C5.63054 14.4006 5.76245 14.237 6.16007 14.1783C6.35788 14.149 6.56045 14.1509 6.76109 14.1405C7.05168 14.1254 7.34323 14.1546 7.63382 14.1044Z" fill="var(--fill-0, #E5156F)"/>
<path d="M8.44895 14.0247C8.80866 14.0228 9.16561 13.9993 9.52532 14.1015C9.78092 14.1744 10.0688 14.1224 10.3358 14.1679C10.6747 14.2265 11.013 14.2886 11.3406 14.4192C11.5081 14.4854 11.6871 14.533 11.8584 14.6031C12.1793 14.7346 12.4623 14.9174 12.7207 15.1436C12.9318 15.3272 13.128 15.5327 13.2577 15.776C13.3599 15.9681 13.4891 16.1603 13.5061 16.3922C13.5146 16.5133 13.511 16.6309 13.5678 16.7511C13.6291 16.8808 13.477 17.0527 13.3095 17.0583C13.1022 17.065 12.8937 17.0607 12.6863 17.0607L12.6846 17.0612C12.4319 17.0575 12.1783 17.08 11.9265 17.0403C11.6141 16.9911 11.3188 16.8935 11.0206 16.7837C10.7546 16.6853 10.5042 16.5665 10.259 16.4311C9.85477 16.2087 9.51686 15.9056 9.1931 15.5828C8.91193 15.3027 8.69309 14.9771 8.4763 14.6496C8.40341 14.5398 8.37619 14.409 8.28721 14.3011C8.21814 14.2178 8.33255 14.0258 8.44895 14.0247Z" fill="var(--fill-0, #E5156F)"/>
</g>
<g id="Union_2">
<path d="M10.5717 5.11831C10.7353 5.11362 10.8481 5.15828 10.8463 5.3522C10.8425 5.64942 10.8451 5.94771 10.8451 6.24588H10.8556V6.96501C10.8556 7.22999 10.7523 7.33051 10.5053 7.42232C10.2838 7.50372 10.0819 7.63621 9.87929 7.7621C9.42779 8.04319 9.07113 8.43052 8.70576 8.8053C8.56565 8.94918 8.47233 9.13755 8.34736 9.29752C8.17227 9.52183 8.05673 9.78236 7.94125 10.0341C7.85802 10.2167 7.79662 10.4248 7.7219 10.613C7.52976 11.0947 7.61304 11.6165 7.44845 12.0972C7.39828 12.2439 7.50243 12.3852 7.52234 12.5319C7.53654 12.6341 7.55165 12.7365 7.55259 12.8396C7.55447 13.1046 7.37347 13.2202 7.14067 13.0945C7.05174 13.0462 6.96746 13.0156 6.86721 13.0165C6.56814 13.0194 6.33132 12.8462 6.07012 12.7355C5.8732 12.6522 5.70139 12.5479 5.5395 12.4126C5.36164 12.264 5.28989 12.1363 5.36844 11.9111C5.43566 11.7199 5.42035 11.5284 5.43361 11.3362C5.45155 11.0704 5.41003 10.797 5.57266 10.5519C5.61616 10.4867 5.5737 10.3703 5.60001 10.286C5.67763 10.0333 5.74976 9.77933 5.86241 9.53607C5.93341 9.38462 5.96688 9.21799 6.05208 9.06654C6.14862 8.89525 6.24494 8.71892 6.32728 8.5429C6.42291 8.33852 6.57897 8.1785 6.67172 7.98261C6.76166 7.79332 6.9088 7.65507 7.03187 7.49795C7.28078 7.18002 7.55418 6.87898 7.87027 6.62348C8.18836 6.36601 8.50864 6.11304 8.85703 5.89155C9.19875 5.67388 9.56046 5.49607 9.92584 5.33707C10.1275 5.24904 10.335 5.12493 10.5717 5.11831Z" fill="var(--fill-0, #099EE2)"/>
<path d="M10.4181 7.8069C10.5402 7.74348 10.6956 7.72817 10.7846 7.82377C10.8717 7.91749 10.8538 8.09095 10.7875 8.19032C10.7015 8.318 10.709 8.44272 10.7014 8.57607C10.6863 8.84205 10.7334 9.11789 10.5658 9.3621C10.531 9.4132 10.5499 9.50007 10.5443 9.57098C10.5311 9.74136 10.5553 9.92034 10.4105 10.0585C10.385 10.0832 10.3909 10.145 10.389 10.1895C10.3833 10.3247 10.398 10.4645 10.2627 10.5572C10.2467 10.5685 10.2441 10.6036 10.2394 10.6281C10.1381 11.1109 9.89962 11.5268 9.64307 11.9442C9.41588 12.3143 9.08713 12.5622 8.74823 12.7884C8.57972 12.9011 8.38362 13.0477 8.13558 13.0241C7.94438 13.0061 7.82577 12.9292 7.81441 12.739C7.80208 12.546 7.75497 12.3548 7.78241 12.1694V12.1682C7.75782 11.9563 7.74022 11.7122 7.83012 11.5684C8.00229 11.292 7.80537 10.9359 8.07041 10.7049C8.03358 10.4797 8.20258 10.3148 8.24612 10.1132C8.27741 9.96946 8.37625 9.85324 8.44627 9.73214C8.80981 9.10741 9.30188 8.58559 9.87464 8.15017C10.0412 8.02337 10.2278 7.90533 10.4181 7.8069Z" fill="var(--fill-0, #099EE2)"/>
<path d="M6.53208 0.00294705C6.75629 0.0256202 6.98519 0.0105935 7.21223 0.00585615C7.61932 -0.00266296 7.98331 0.114079 8.34969 0.296766C8.86744 0.55423 9.26134 0.929979 9.61631 1.37197C9.80468 1.60764 9.9598 1.85007 10.08 2.12834C10.1936 2.39336 10.2769 2.67366 10.3971 2.92543C10.5381 3.22168 10.4929 3.54075 10.6339 3.83132C10.754 4.07735 10.6869 4.37911 10.6717 4.65634C10.6679 4.71882 10.611 4.78435 10.5618 4.77678C10.3546 4.7438 10.205 4.92349 10.0073 4.91409C9.98271 4.91314 9.9535 4.92087 9.93457 4.93504C9.64771 5.15559 9.27793 5.21997 8.98445 5.41969C8.71282 5.60416 8.40877 5.72613 8.1542 5.95322C7.9005 6.17941 7.61748 6.37931 7.36001 6.60835C7.0827 6.85536 6.85487 7.14233 6.63623 7.4357C6.42511 7.71967 6.2262 8.01694 6.05674 8.32646C5.92328 8.57062 5.80014 8.82419 5.68088 9.07876C5.58905 9.2747 5.57874 9.50132 5.43768 9.67454C5.42538 9.68873 5.41456 9.70835 5.41266 9.72632C5.37574 10.0434 5.27845 10.3542 5.19041 10.6514C5.08069 11.0223 5.12404 11.3894 5.06066 11.7528C5.03699 11.8891 4.96684 11.9136 4.85702 11.8767C4.80412 11.8588 4.75316 11.8229 4.71157 11.7842C4.40959 11.506 4.15292 11.1868 3.88597 10.8754C3.60668 10.5498 3.38561 10.1863 3.16218 9.82756C3.01549 9.59191 2.89177 9.3323 2.77062 9.07585C2.63432 8.78719 2.53087 8.48421 2.37847 8.20312C2.29053 8.04134 2.24962 7.84656 2.21556 7.68006C2.13889 7.30245 2.00195 6.93789 1.98109 6.53853C1.965 6.23379 1.86147 5.92503 1.87752 5.60704L1.8816 5.60878C1.91094 5.35132 1.83164 5.08253 1.9869 4.83264C2.03699 4.75123 1.99804 4.61679 2.00843 4.50798C2.03967 4.18236 2.15902 3.88403 2.29061 3.5887C2.34924 3.45728 2.40399 3.32297 2.46167 3.19248C2.56676 2.95206 2.6931 2.72152 2.84742 2.5199C3.02343 2.28996 3.18932 2.05083 3.40131 1.84266C3.67396 1.57573 3.95765 1.32433 4.25018 1.08106C4.40162 0.955193 4.54783 0.820214 4.71157 0.71044C4.85728 0.613047 5.04163 0.568395 5.17411 0.459676C5.3218 0.338519 5.52623 0.348548 5.65877 0.214148C5.67202 0.200896 5.69039 0.182148 5.70648 0.182148C5.99513 0.18583 6.23299 -0.0273359 6.53208 0.00294705Z" fill="var(--fill-0, #099EE2)"/>
</g>
<g id="Union_3">
<path d="M20.4808 12.4753C20.5754 12.4252 20.6096 12.5146 20.6681 12.562C21.0989 12.9084 21.4353 13.3346 21.7591 13.7786C21.901 13.9735 22.0421 14.1724 22.1652 14.3749C22.2948 14.5888 22.4207 14.8122 22.5381 15.0365C22.6924 15.3289 22.7954 15.6442 22.9582 15.9319C23.0292 16.0587 23.0786 16.216 23.1013 16.3409C23.1562 16.6419 23.3514 16.9063 23.323 17.2253C23.307 17.4031 23.4522 17.5318 23.458 17.7181C23.4826 18.4242 23.5378 19.1353 23.4242 19.8301C23.3826 20.0866 23.3324 20.3696 23.2008 20.6289C23.1137 20.8003 23.0575 21.0132 22.9628 21.1817C22.7934 21.4836 22.6259 21.7894 22.3996 22.0649C22.1242 22.3999 21.8382 22.7197 21.5182 23.0074C21.2171 23.2772 20.9003 23.5295 20.5576 23.751C20.2964 23.9204 20.0132 24.0458 19.7349 24.167C19.5607 24.2427 19.3665 24.329 19.163 24.3479C19.1195 24.3517 19.0655 24.3575 19.0908 24.4282H18.8569C18.8417 24.3528 18.7773 24.3719 18.7348 24.3776C18.5428 24.403 18.3393 24.313 18.1558 24.4282H17.8056C17.8188 24.4018 17.8158 24.3641 17.7905 24.3648C17.6087 24.3667 17.4718 24.2413 17.3052 24.1949C17.0582 24.1258 16.835 23.9779 16.6239 23.8284C16.32 23.6135 16.0565 23.3456 15.8274 23.0598C15.6656 22.8582 15.5181 22.6348 15.3875 22.4012C15.219 22.1011 15.1024 21.7789 15.003 21.4656C14.9093 21.1703 14.7873 20.8627 14.7854 20.5382C14.7854 20.3887 14.7615 20.2505 14.701 20.1076C14.5628 19.7858 14.6604 19.6646 14.9832 19.5671C15.1659 19.5122 15.3612 19.4602 15.5307 19.3542C15.6812 19.2605 15.8583 19.2364 16.0182 19.154C16.2539 19.0338 16.4896 18.9117 16.7129 18.7735C16.9818 18.606 17.2299 18.4063 17.4873 18.2208C17.8234 17.9785 18.0868 17.6579 18.3868 17.3777C18.6756 17.108 18.8978 16.7782 19.1089 16.4526C19.2442 16.2425 19.376 16.018 19.4981 15.7946C19.6505 15.5163 19.7671 15.2218 19.8844 14.9341C19.9649 14.7373 20.0283 14.5137 20.0974 14.3075C20.2374 13.8948 20.2008 13.45 20.3703 13.0449C20.4146 12.9389 20.3854 12.8016 20.3929 12.6795C20.3977 12.601 20.4023 12.5169 20.4808 12.4753Z" fill="var(--fill-0, #FBB305)"/>
<path d="M17.9941 11.2448C18.1086 11.1984 18.2504 11.188 18.363 11.2779C18.4236 11.3271 18.4891 11.3383 18.562 11.3402C18.7162 11.3449 18.8486 11.3763 18.9943 11.4624C19.1258 11.54 19.3 11.562 19.4487 11.6462C19.6341 11.7531 19.8237 11.8503 19.9874 11.9912C20.0442 12.0405 20.0479 12.1022 20.0479 12.1675V12.6807L20.0491 12.8203C20.0569 12.9675 20.0759 13.1278 20.0142 13.2683C19.91 13.5059 19.9478 13.7703 19.8588 13.988C19.7586 14.2331 19.7358 14.497 19.6156 14.7421C19.538 14.9001 19.4468 15.0819 19.4004 15.275C19.3436 15.5088 19.203 15.7353 19.0524 15.9284C18.9549 16.0534 18.9113 16.2 18.811 16.324C18.6235 16.555 18.4735 16.8188 18.2652 17.0356C17.9831 17.33 17.7004 17.6238 17.389 17.8897C17.2063 18.0459 17.0027 18.1687 16.8124 18.3115C16.626 18.4516 16.4233 18.5634 16.2236 18.6798C16.0562 18.7773 15.8743 18.8567 15.7011 18.9428C15.5146 19.0356 15.2994 19.0456 15.1281 19.179C15.0126 19.2688 14.8555 19.2481 14.7126 19.232C14.6502 19.2254 14.633 19.1738 14.6283 19.1179C14.5913 18.6126 14.4588 18.1137 14.5166 17.6017C14.5298 17.4864 14.525 17.3653 14.5637 17.2584C14.6176 17.1099 14.6831 16.9618 14.8837 16.939C15.0238 16.9229 15.1404 16.8218 15.2578 16.7546C15.5626 16.5786 15.8635 16.3836 16.1247 16.1489C16.3803 15.9198 16.6392 15.6829 16.8276 15.3838C16.9544 15.1823 17.0972 14.9909 17.2325 14.795C17.3082 14.6862 17.3661 14.5535 17.4059 14.4419C17.4665 14.2715 17.5435 14.0908 17.6182 13.9432C17.7554 13.6726 17.6806 13.3519 17.8725 13.1077C17.9066 13.0651 17.8952 12.9824 17.8952 12.9181C17.8971 12.4581 17.8962 11.9982 17.8981 11.5392C17.8981 11.4303 17.8777 11.2911 17.9941 11.2448Z" fill="var(--fill-0, #FBB305)"/>
<path d="M17.0015 11.4082C17.1227 11.3089 17.2952 11.3155 17.4495 11.3553C17.5517 11.3818 17.5548 11.4757 17.5548 11.5618C17.5558 11.8013 17.5548 12.041 17.5548 12.2804L17.5566 12.2833C17.5424 12.5861 17.6167 12.9031 17.5164 13.1898C17.4313 13.4329 17.4258 13.698 17.2802 13.9269C17.2026 14.0491 17.1662 14.2028 17.1028 14.34C16.9939 14.5766 16.8604 14.7955 16.7193 15.0103C16.5054 15.3358 16.2432 15.6236 15.9508 15.8772C15.7028 16.093 15.4435 16.3003 15.1397 16.4375C15.0431 16.482 14.9831 16.5835 14.8581 16.5882C14.7134 16.5938 14.619 16.5489 14.6341 16.3985C14.6596 16.1345 14.6246 15.8694 14.7534 15.6072C14.8328 15.4463 14.758 15.2144 14.8185 15.0365C14.9226 14.7317 14.9381 14.4101 15.0582 14.1044C15.1359 13.9075 15.198 13.6857 15.252 13.4708C15.305 13.2626 15.4209 13.0826 15.508 12.8896C15.6093 12.6644 15.7389 12.4554 15.8902 12.2624C16.0853 12.0134 16.3154 11.8043 16.589 11.6311C16.7225 11.5468 16.8756 11.5114 17.0015 11.4082Z" fill="var(--fill-0, #FBB305)"/>
</g>
<g id="Union_4">
<path fill-rule="evenodd" clip-rule="evenodd" d="M12.7661 7.2897C13.0453 7.30105 13.317 7.25766 13.5754 7.32578C13.8603 7.40056 14.1485 7.4631 14.4277 7.5748C14.7003 7.68457 14.9576 7.81906 15.2179 7.94774C15.3958 8.03577 15.5486 8.17517 15.7124 8.2916C16.1922 8.63234 16.5465 9.09207 16.8627 9.57568C16.9668 9.7347 17.115 9.89875 17.0989 10.1278C17.0894 10.2725 17.0395 10.346 16.89 10.3414C16.5615 10.3309 16.2376 10.34 15.9091 10.2529C15.6393 10.1819 15.3365 10.2412 15.0602 10.1854C14.7345 10.1192 14.401 10.0794 14.0885 9.93931C13.9305 9.86929 13.7554 9.84177 13.5917 9.76419C13.0691 9.51431 12.5788 9.24167 12.2692 8.71924C12.1386 8.49875 12.0193 8.29048 11.9521 8.03502C11.9067 7.86369 11.8421 7.70258 11.8468 7.51894C11.8506 7.3959 11.8894 7.33555 12.0219 7.31472C12.2746 7.27592 12.5273 7.30613 12.7649 7.28912L12.7661 7.2897Z" fill="var(--fill-0, #9BC20B)"/>
<path fill-rule="evenodd" clip-rule="evenodd" d="M13.0058 4.81813C13.3285 4.83796 13.6655 4.75501 13.9693 4.93857C13.9948 4.95371 14.0329 4.95865 14.0641 4.95486C14.4172 4.91327 14.7417 5.06478 15.0503 5.17362C15.4432 5.31277 15.8364 5.47985 16.2075 5.69377C16.5691 5.90292 16.9259 6.11601 17.2496 6.37625C17.5828 6.64413 17.8772 6.95683 18.1764 7.26352C18.4453 7.53896 18.6497 7.85512 18.874 8.15894C19.0331 8.37476 19.1326 8.63416 19.2708 8.86702C19.4431 9.1576 19.5227 9.48793 19.6798 9.78513C19.7366 9.89302 19.7374 9.98941 19.5926 10.0708C19.2896 10.2411 18.9601 10.1797 18.643 10.2157C18.3543 10.2488 18.0618 10.2054 17.7703 10.2518C17.6463 10.2716 17.5166 10.194 17.4759 10.072C17.3434 9.6763 17.0991 9.35149 16.8691 9.01073C16.6286 8.65388 16.3416 8.34236 16.0074 8.09436C15.643 7.82368 15.2783 7.54464 14.8391 7.37523C14.6621 7.30715 14.4476 7.2907 14.3009 7.14134C14.2886 7.12906 14.2657 7.12347 14.2468 7.12156C13.745 7.06666 13.2637 6.85158 12.744 6.92258V6.92083C12.5699 6.93124 12.3949 6.94519 12.2209 6.94992C11.9956 6.9556 11.9568 6.90089 11.9719 6.68519C12.0012 6.26119 12.2243 5.91836 12.4117 5.55588C12.5178 5.35142 12.6617 5.17219 12.7649 4.97057C12.8245 4.85518 12.9055 4.81151 13.0058 4.81813Z" fill="var(--fill-0, #9BC20B)"/>
<path fill-rule="evenodd" clip-rule="evenodd" d="M20.3809 0.946702C20.6638 0.975933 20.9825 0.899939 21.2862 1.05783C21.3847 1.10894 21.531 1.05773 21.6522 1.07761C21.99 1.13156 22.3146 1.23261 22.6372 1.3499C22.8095 1.41238 22.9745 1.49792 23.1516 1.54714C23.3002 1.58879 23.4316 1.67884 23.5518 1.75834C23.6939 1.85205 23.857 1.91078 23.9876 2.03005C24.3738 2.38492 24.7732 2.72273 25.025 3.19776C25.1793 3.49025 25.2743 3.79812 25.3747 4.11239C25.5611 4.69533 25.4757 5.27076 25.4672 5.85086C25.2779 6.08467 25.3696 6.3963 25.2228 6.66134C25.0922 6.89608 25.0101 7.17366 24.8662 7.4084C24.6484 7.76331 24.3718 8.07545 24.0528 8.34804C23.8086 8.55626 23.5644 8.77893 23.2766 8.9124C23.0116 9.03638 22.773 9.20886 22.49 9.3092C22.3215 9.36884 22.1213 9.40236 21.9745 9.53204C21.9604 9.54428 21.9409 9.55751 21.9239 9.55764C21.6561 9.55764 21.4088 9.68634 21.1827 9.77815C20.8855 9.89834 20.5501 9.81727 20.2832 10.0074C20.2387 10.0386 20.1938 10.0218 20.1616 9.98295C20.0963 9.90354 19.9895 9.8259 19.9789 9.738C19.9514 9.51461 19.8287 9.33155 19.7595 9.12709C19.7027 8.95865 19.6156 8.79495 19.5286 8.63313C19.4197 8.43058 19.2965 8.23748 19.18 8.03967C19.0191 7.76519 18.8373 7.50677 18.6366 7.26352C18.3186 6.87836 17.9448 6.54413 17.587 6.19588C17.4469 6.05959 17.2619 5.97157 17.1076 5.84854C16.8179 5.61568 16.4828 5.45362 16.1656 5.26904C16.0246 5.18671 15.8475 5.12039 15.6856 5.05319C15.4831 4.96992 15.2509 4.95304 15.073 4.80824C15.0418 4.78273 14.9891 4.78227 14.9456 4.77566C14.7998 4.75389 14.665 4.72097 14.5249 4.65755C14.3687 4.58662 14.1718 4.59421 13.992 4.58948C13.7866 4.58375 13.6197 4.45692 13.42 4.42948C13.3208 4.41613 13.2935 4.3365 13.3653 4.22584C13.5244 3.98069 13.7457 3.79493 13.9559 3.60562C14.3128 3.28379 14.689 2.97809 15.0829 2.70264C15.3753 2.49825 15.6698 2.29506 16.001 2.14176C16.3152 1.99602 16.6134 1.81595 16.9371 1.68154C17.2278 1.56038 17.5225 1.46479 17.8198 1.36445C18.3309 1.19127 18.8477 1.11339 19.3796 1.04619C19.7029 1.00555 20.0246 0.955325 20.3809 0.946702ZM25.0343 3.65158C25.1262 3.87501 25.2468 4.09117 25.2426 4.34511C25.2388 4.59122 25.2426 4.83734 25.2426 5.08344L25.2438 5.08519C25.2438 5.29911 25.2419 5.51338 25.2438 5.72635C25.2485 6.09348 25.1085 6.41714 24.9628 6.74454C24.9069 6.87043 24.8478 6.9937 24.7929 7.11865C24.6641 7.41011 24.4615 7.64395 24.2599 7.87676C24.0157 8.15784 23.7195 8.3879 23.4052 8.58949C23.1354 8.76271 22.8513 8.90845 22.5616 9.04855C22.4045 9.12426 22.2358 9.2074 22.0787 9.26324C21.843 9.34654 21.6226 9.49892 21.3566 9.49422C21.3434 9.49422 21.3271 9.48992 21.3177 9.49655C21.0829 9.66301 20.7838 9.61113 20.5339 9.72753C20.3731 9.80208 20.3087 9.82718 20.2582 9.77408C20.3091 9.82957 20.373 9.80467 20.5351 9.72928C20.785 9.61297 21.0841 9.66485 21.3188 9.49829C21.3274 9.49171 21.3446 9.49655 21.3578 9.49655C21.6227 9.50022 21.8442 9.34884 22.0798 9.26557C22.237 9.20972 22.4056 9.12602 22.5628 9.05029C22.8524 8.91022 23.1366 8.76349 23.4064 8.59124C23.7206 8.38965 24.0159 8.15958 24.2611 7.87851C24.4627 7.64568 24.6653 7.41285 24.794 7.12039C24.8489 6.99546 24.9075 6.87217 24.9633 6.74628C25.1091 6.41884 25.2487 6.09529 25.2449 5.7281C25.2421 5.51427 25.2449 5.3004 25.2449 5.08752L25.2438 5.08519C25.2438 4.83913 25.2409 4.59292 25.2438 4.34686C25.2479 4.09223 25.1263 3.87566 25.0343 3.65158ZM19.8474 8.81407C19.9033 8.91804 19.9502 9.02922 19.9946 9.1428C19.9501 9.02855 19.9035 8.9163 19.8468 8.81175C19.7915 8.70948 19.7381 8.60561 19.6845 8.50164C19.7385 8.60626 19.7917 8.71116 19.8474 8.81407Z" fill="var(--fill-0, #9BC20B)"/>
</g>
<g id="Union_5">
<path fill-rule="evenodd" clip-rule="evenodd" d="M67.3983 7.94811C67.6529 7.94811 67.7165 8.01454 67.7166 8.27567V16.8593C67.7166 17.1479 67.6663 17.2066 67.3844 17.2095C66.8656 17.2161 66.3467 17.2133 65.828 17.2095C65.6368 17.2076 65.597 17.15 65.6319 16.9599V16.9588C65.6291 16.9077 65.6232 16.8556 65.6232 16.8046V8.34374C65.6232 8.29844 65.6267 8.25406 65.6296 8.20876C65.6911 8.13777 65.7663 8.10332 65.8629 8.09007C66.0481 8.06494 66.2331 8.05795 66.4179 8.05923C66.2327 8.05792 66.0473 8.06488 65.8617 8.09007C65.7652 8.10333 65.6911 8.13778 65.6296 8.20876C65.6097 7.99578 65.6422 7.95022 65.8419 7.94927C66.3607 7.94643 66.8795 7.94621 67.3983 7.94811Z" fill="var(--fill-0, #A8A19D)"/>
<path fill-rule="evenodd" clip-rule="evenodd" d="M52.5735 7.95043C52.8547 7.95043 53.0992 8.0999 53.2071 8.3356C53.3141 8.57032 53.3131 8.84474 53.1408 9.0908C52.9231 9.40125 52.6276 9.63051 52.3606 9.8908C52.1392 10.1075 51.9252 10.3307 51.6991 10.5436C51.4056 10.8191 51.1359 11.1205 50.849 11.4035C50.5064 11.7414 50.158 12.0742 49.8087 12.4054C49.3657 12.8247 48.9148 13.2348 48.4746 13.6569C48.0913 14.0251 47.7183 14.4048 47.3407 14.7787C47.0547 15.0617 46.7674 15.3437 46.4796 15.6258C46.4578 15.6466 46.4155 15.6546 46.4353 15.6962C46.4515 15.731 46.4885 15.7261 46.5197 15.727C46.5717 15.7289 46.624 15.7282 46.675 15.7282H52.7492C53.0519 15.7282 53.104 15.7815 53.1059 16.0918C53.1069 16.3634 53.1059 16.636 53.1059 16.9076C53.1059 17.0836 53.0557 17.2123 52.8429 17.202C52.7719 17.1982 52.7004 17.2107 52.6294 17.2107C49.7155 17.2107 46.8014 17.2092 43.8875 17.213C43.5705 17.213 43.2987 17.1593 43.1085 16.8697C43.01 16.7202 42.9932 16.3293 43.0841 16.1721C43.3624 15.6894 43.8109 15.3635 44.1849 14.9707C44.662 14.469 45.1621 13.9862 45.6714 13.5167C46.1257 13.0984 46.5545 12.6547 47.0154 12.2431C47.4736 11.8342 47.8922 11.3812 48.3315 10.9515C48.784 10.5094 49.2436 10.0732 49.697 9.63306C49.7518 9.58009 49.7953 9.51647 49.853 9.44746H49.8547C49.7639 9.39368 49.6845 9.41428 49.6097 9.41429C47.6179 9.41335 45.6251 9.41371 43.6333 9.41371C43.5747 9.41371 43.5158 9.40619 43.4582 9.41371C43.2547 9.4421 43.1709 9.3398 43.169 9.15247C43.1662 8.84772 43.159 8.54283 43.1713 8.23902C43.1808 7.99675 43.2411 7.94813 43.4814 7.94811C46.5118 7.94811 49.5432 7.94665 52.5735 7.95043ZM43.4535 16.9657C43.6874 17.0227 43.9212 17.1225 44.1564 17.0728C43.9212 17.1219 43.6878 17.0221 43.4535 16.9657ZM43.5646 15.7846C43.4298 15.9171 43.2991 16.047 43.2336 16.2262C43.2991 16.0477 43.4299 15.9178 43.5646 15.7846ZM45.1641 14.212C44.9988 14.3936 44.8178 14.5616 44.6369 14.7298C44.8176 14.5619 44.9982 14.3941 45.1641 14.212ZM48.7713 13.1222C48.7543 13.1482 48.7521 13.1867 48.7388 13.2211C48.7556 13.1781 48.7554 13.1288 48.7876 13.1054L48.7713 13.1222ZM50.0228 9.38229C50.0416 9.40615 50.0431 9.4342 50.0106 9.47655C50.0284 9.45326 50.0371 9.43378 50.0374 9.4172C50.0376 9.40374 50.0314 9.39297 50.0228 9.38229ZM49.7034 9.29735C49.78 9.29734 49.8595 9.28291 49.9332 9.32062C49.8604 9.28197 49.781 9.29734 49.7034 9.29735ZM52.5049 8.09298C52.5398 8.09408 52.574 8.09598 52.6073 8.09938C52.6702 8.10583 52.7299 8.11771 52.7859 8.13778C52.7001 8.10698 52.6058 8.09617 52.5049 8.09298Z" fill="var(--fill-0, #A8A19D)"/>
<path fill-rule="evenodd" clip-rule="evenodd" d="M42.1049 7.94462C42.2838 7.94462 42.3454 8.02123 42.3643 8.18025C42.406 8.54271 42.3926 8.90325 42.3585 9.26477C42.3481 9.37923 42.284 9.42319 42.1828 9.43175C42.1251 9.43648 42.0663 9.4335 42.0077 9.43349C39.8407 9.43349 37.6723 9.43356 35.5053 9.4364C35.0973 9.4365 34.7207 9.74696 34.5266 10.0962C34.3582 10.3991 34.3939 10.7077 34.3882 11.0096C34.3664 12.0584 34.378 13.1082 34.3818 14.1579C34.3818 14.3774 34.3668 14.6063 34.4208 14.8136C34.4785 15.0322 34.595 15.2387 34.7664 15.4053C35.038 15.6702 35.3728 15.728 35.7333 15.727C37.8426 15.7251 39.9523 15.7297 42.0606 15.7212C42.2735 15.7213 42.3627 15.7994 42.376 15.9906C42.4006 16.3521 42.4086 16.7146 42.3556 17.0751C42.3348 17.2189 42.224 17.2113 42.1171 17.2113H38.3795L38.3777 17.2107C37.2095 17.2107 36.0411 17.2112 34.8728 17.2084C34.6051 17.2083 34.3486 17.1746 34.0827 17.0914C33.8697 17.0242 33.6491 16.9519 33.4276 16.9017C33.2922 16.8714 33.2031 16.7778 33.0971 16.7144C32.7431 16.5033 32.4673 16.2101 32.2581 15.8504C32.1039 15.5854 32.0284 15.2948 31.9224 15.0137C31.7312 14.5083 31.8104 14.0062 31.7991 13.5045C31.7792 12.6309 31.7931 11.7551 31.795 10.8805C31.795 10.6506 31.7736 10.4139 31.9288 10.2143C31.9326 10.2096 31.9346 10.2019 31.9346 10.1963C31.9252 9.85747 32.1009 9.58577 32.2628 9.31131C32.4029 9.07372 32.5823 8.8705 32.7934 8.68876C32.978 8.52883 33.1867 8.40801 33.3921 8.28498C33.5246 8.20547 33.6898 8.13009 33.8261 8.11683C34.183 8.08179 34.5202 7.94542 34.8827 7.94636C37.2901 7.95015 39.6975 7.94935 42.1049 7.94462ZM34.3888 9.99379C34.2947 10.1766 34.257 10.3811 34.1677 10.5646C34.1071 10.6886 34.1546 10.8656 34.1537 11.019C34.1537 12.1274 34.1556 13.235 34.1537 14.3435C34.1528 14.8555 34.448 15.4206 34.8862 15.6875C35.1068 15.8219 35.3494 15.8976 35.6164 15.908C37.7502 15.9875 39.8849 15.9224 42.0187 15.9394C42.2014 15.9404 42.2621 15.9837 42.2631 16.1739C42.2641 16.4332 42.2179 16.6891 42.2189 16.9465C42.2189 16.9925 42.2084 17.0227 42.1898 17.0425C42.209 17.0227 42.2195 16.9922 42.2195 16.9454C42.2195 16.6871 42.2652 16.4325 42.2643 16.1733C42.2633 15.9831 42.2025 15.9392 42.0199 15.9382C39.886 15.9221 37.7509 15.9863 35.617 15.9068C35.351 15.8973 35.1088 15.8216 34.8874 15.6863C34.449 15.4194 34.1533 14.8544 34.1543 14.3423C34.1571 13.2339 34.1543 12.1262 34.1543 11.0178C34.1542 10.8645 34.1083 10.6873 34.1688 10.5634C34.2581 10.3807 34.2954 10.1761 34.3893 9.9932L34.3888 9.99379ZM32.5304 9.09604C32.4876 9.14797 32.4484 9.20151 32.4111 9.25546C32.4482 9.20187 32.4873 9.1488 32.5298 9.0972L32.5304 9.09604ZM34.984 8.09298C34.523 8.09298 34.0685 8.14799 33.6388 8.32396C33.4707 8.39296 33.3094 8.47168 33.1565 8.56367C33.309 8.47197 33.47 8.39395 33.6376 8.32513C34.0674 8.14907 34.5218 8.09415 34.9828 8.09414C37.3003 8.09225 39.618 8.09414 41.9355 8.09414C42.2309 8.09415 42.2905 8.15279 42.2905 8.44149V9.00586C42.2904 9.14041 42.2851 9.21246 42.2474 9.25138C42.2861 9.2126 42.2916 9.14023 42.2916 9.00469V8.44033C42.2916 8.1528 42.2318 8.09301 41.9367 8.09298C39.6192 8.09298 37.3015 8.09109 34.984 8.09298ZM32.9778 8.67945C32.8848 8.74604 32.7965 8.82019 32.7119 8.90171C32.7962 8.82064 32.8841 8.7469 32.9767 8.68062L32.9778 8.67945Z" fill="var(--fill-0, #A8A19D)"/>
<path fill-rule="evenodd" clip-rule="evenodd" d="M55.3779 7.93996C55.6146 7.9144 55.7717 8.03839 55.8474 8.2012C55.9648 8.45389 56.1191 8.68675 56.228 8.94418C56.3311 9.18933 56.4913 9.41075 56.6201 9.64644C56.7432 9.86982 56.857 10.0991 56.9791 10.3225C57.1201 10.5817 57.2801 10.8314 57.4079 11.0963C57.5196 11.3291 57.6376 11.5576 57.7663 11.78C57.9073 12.0223 58.0232 12.2788 58.1718 12.5183C58.3166 12.7521 58.4253 13.0089 58.5541 13.2531C58.6676 13.4698 58.7759 13.691 58.9055 13.8972C59.0049 14.0552 59.0719 14.2278 59.1656 14.3877C59.193 14.435 59.2123 14.4788 59.2767 14.4779C59.3437 14.4778 59.353 14.4276 59.3785 14.3813C59.5101 14.1342 59.6503 13.8906 59.7829 13.6435C59.8605 13.4997 59.9267 13.3493 60.0034 13.2054C60.0829 13.0559 60.1684 12.9102 60.2536 12.7644C60.3255 12.6405 60.3823 12.508 60.4514 12.3822C60.6511 12.0216 60.8629 11.6654 61.0466 11.2982C61.1725 11.0464 61.3187 10.8039 61.4323 10.5436C61.5677 10.2304 61.7552 9.94004 61.9246 9.64295C62.0183 9.4792 62.1127 9.31602 62.1922 9.14375C62.2604 8.99703 62.3564 8.86253 62.4331 8.7196C62.504 8.58809 62.575 8.45365 62.6384 8.31931C62.7908 7.99662 62.8402 7.94636 63.1999 7.94636C63.7385 7.94636 64.277 7.94432 64.8156 7.94811C64.9008 7.94811 65.0058 7.90965 65.0588 8.01851C65.1127 8.13015 65.1132 8.2465 65.046 8.35247C64.8794 8.61467 64.739 8.89135 64.5951 9.16586C64.4276 9.48476 64.224 9.78571 64.047 10.1008C63.8625 10.4311 63.7053 10.7765 63.5094 11.0992C63.3712 11.3264 63.2515 11.5652 63.1161 11.7934C63.0357 11.9295 62.947 12.0715 62.8846 12.2256C62.7965 12.4415 62.659 12.6368 62.5454 12.8412C62.3987 13.1043 62.2418 13.3608 62.1131 13.6342C62.0127 13.8453 61.8781 14.0404 61.7646 14.2457C61.6188 14.5088 61.4606 14.7654 61.3328 15.0399C61.2335 15.2509 61.099 15.4459 60.9826 15.6502C60.8955 15.8036 60.8242 15.9657 60.7295 16.1134C60.5487 16.3945 60.456 16.7346 60.2175 16.9721C60.0566 17.132 59.8304 17.2169 59.5862 17.2113C59.3912 17.2065 59.1971 17.2094 59.0021 17.2113C58.5798 17.2141 58.2945 17.0345 58.1165 16.637C57.9679 16.3048 57.7455 16.0075 57.576 15.6828C57.4473 15.4358 57.3038 15.1972 57.1798 14.9474C57.0236 14.6312 56.8186 14.3385 56.6568 14.0252C56.5754 13.8691 56.4789 13.7215 56.406 13.5598C56.3038 13.3336 56.16 13.1252 56.0389 12.9075C55.9007 12.6587 55.7692 12.4058 55.631 12.157C55.5127 11.9431 55.3901 11.7296 55.2679 11.5176C55.1232 11.2649 54.9804 11.0121 54.8479 10.7519C54.6898 10.4434 54.5004 10.1509 54.3376 9.84426C54.2486 9.67766 54.1376 9.52512 54.0647 9.34622C53.9758 9.12668 53.845 8.92203 53.7116 8.72425C53.6321 8.60694 53.5734 8.47922 53.4986 8.36004C53.3586 8.14046 53.4856 7.94753 53.7459 7.94753H54.5826L54.5808 7.94636C54.8468 7.94636 55.1157 7.96835 55.3779 7.93996ZM55.3221 8.12149C55.0835 8.13852 54.8422 8.12557 54.6018 8.12556L54.6006 8.12789C54.3346 8.12789 54.0683 8.12505 53.8023 8.12789C53.6743 8.12961 53.611 8.15097 53.6045 8.20527C53.613 8.15316 53.676 8.13246 53.8018 8.1308C54.0678 8.12701 54.334 8.1308 54.6 8.1308L54.6006 8.12789C54.841 8.12789 55.0815 8.14141 55.3209 8.1244C55.5054 8.11115 55.6307 8.19333 55.7159 8.32862C55.9346 8.67601 56.1403 9.02744 56.3013 9.4108C56.4054 9.66064 56.584 9.89085 56.7184 10.1369C56.8841 10.4398 57.052 10.7418 57.2205 11.0428C57.4221 11.4043 57.6077 11.7752 57.8018 12.1395C57.9258 12.3714 58.0789 12.5903 58.166 12.8459C58.2086 12.9718 58.3023 13.0855 58.3667 13.2095C58.592 13.6392 58.842 14.0558 59.0777 14.4808C59.1269 14.5697 59.1696 14.6661 59.2831 14.6547C59.3929 14.6434 59.4326 14.5608 59.478 14.4529C59.433 14.5594 59.394 14.6405 59.2843 14.6518C59.1707 14.6632 59.1281 14.5668 59.0789 14.4779C58.8441 14.0529 58.5932 13.6363 58.3679 13.2066C58.3026 13.0826 58.2098 12.9688 58.1672 12.843C58.0801 12.5874 57.9264 12.3685 57.8024 12.1366C57.6074 11.7723 57.4227 11.4014 57.2211 11.0399C57.0526 10.738 56.8852 10.4369 56.7196 10.134C56.5852 9.8879 56.406 9.65779 56.3018 9.40789C56.1409 9.02455 55.9358 8.67308 55.7171 8.32571C55.6319 8.1904 55.5066 8.10824 55.3221 8.12149ZM60.0511 13.4795C59.9973 13.599 59.8916 13.6809 59.837 13.7971C59.7478 13.9858 59.6231 14.1588 59.5292 14.3441C59.6235 14.1593 59.7478 13.9879 59.8358 13.8001C59.8908 13.6836 59.9977 13.6008 60.0511 13.4795ZM64.6446 8.12556C64.1807 8.12935 63.7156 8.12038 63.2517 8.13836C63.0937 8.14498 62.9034 8.1461 62.8078 8.31814C62.6743 8.55668 62.5343 8.79458 62.4302 9.04542C62.3232 9.30194 62.1641 9.52449 62.0316 9.76397C61.8963 10.0081 61.7514 10.2475 61.6179 10.4936C61.4797 10.7472 61.3519 11.0069 61.2165 11.2616C61.0887 11.5019 60.9458 11.7338 60.8208 11.976C60.7291 12.153 60.6616 12.3506 60.5387 12.502C60.4061 12.6648 60.3793 12.8726 60.2524 13.0373C60.2082 13.095 60.1541 13.167 60.1192 13.2363C60.1543 13.1678 60.2081 13.0966 60.2518 13.0396C60.3785 12.875 60.405 12.6676 60.5375 12.5049C60.6605 12.3535 60.7288 12.1559 60.8197 11.979C60.9446 11.7366 61.0875 11.5043 61.2153 11.2639C61.3507 11.0084 61.4786 10.7501 61.6168 10.4965C61.7502 10.2514 61.8951 10.012 62.0304 9.76688C62.163 9.52744 62.322 9.30479 62.429 9.04833C62.5331 8.79654 62.6731 8.55959 62.8066 8.32105C62.9032 8.14883 63.093 8.14695 63.2511 8.14127C63.7149 8.1233 64.1796 8.13167 64.6434 8.12789C64.7362 8.12789 64.8649 8.12555 64.8895 8.19654C64.8955 8.21351 64.897 8.23334 64.8947 8.25473C64.8974 8.23224 64.8969 8.21137 64.8907 8.19364C64.8661 8.12174 64.7373 8.12461 64.6446 8.12556Z" fill="var(--fill-0, #A8A19D)"/>
<path fill-rule="evenodd" clip-rule="evenodd" d="M102.972 8.05342C103.04 8.05342 103.112 8.02976 103.174 8.07902H103.256C103.338 8.07371 103.421 8.06031 103.495 8.11509C103.551 8.1329 103.561 8.17295 103.563 8.21633V9.07567C103.564 9.20723 103.503 9.26607 103.378 9.27175C103.307 9.27459 103.235 9.27698 103.164 9.27698H96.6423C96.4209 9.27698 96.3384 9.35293 96.2589 9.56382C96.1917 9.74083 96.0923 9.90682 96.0099 10.0782C95.9294 10.2447 95.8515 10.4124 95.7748 10.5808C95.7645 10.6035 95.7654 10.6327 95.7551 10.6553C95.6459 10.8931 95.7236 11.0125 95.9878 11.0126H102.062C102.198 11.0126 102.335 11.0192 102.471 11.0201C102.575 11.0211 102.672 11.0549 102.723 11.1429C102.817 11.3057 102.934 11.4524 102.933 11.6654C102.926 13.2328 102.93 14.8013 102.929 16.3688C102.929 16.7067 102.722 16.9397 102.426 17.0827C102.18 17.2019 101.938 17.1897 101.689 17.1897C99.3791 17.1916 97.0683 17.1896 94.7584 17.1915C94.4801 17.1915 94.2358 17.0922 94.0474 16.9058C93.9101 16.7704 93.8161 16.597 93.8199 16.3746C93.8313 15.5322 93.8249 14.6907 93.824 13.8483C93.824 13.7726 93.8448 13.692 93.7937 13.622C93.789 13.5444 93.7377 13.5313 93.6733 13.5313H93.6716C93.7359 13.5313 93.7882 13.5444 93.792 13.622C93.4001 13.6201 93.008 13.6185 92.6161 13.6156C92.4187 13.6084 92.3636 13.4919 92.4684 13.3078C92.6321 13.0211 92.7539 12.7135 92.9129 12.4258C93.1155 12.0595 93.2718 11.6711 93.4697 11.3029C93.606 11.0492 93.7272 10.7812 93.838 10.5104C93.9449 10.2474 94.0907 9.99956 94.226 9.74884C94.2933 9.62484 94.3218 9.48724 94.3919 9.36135C94.4618 9.23652 94.3197 9.2628 94.2563 9.26186C93.7508 9.25807 93.2444 9.26011 92.7389 9.26011C92.6736 9.26011 92.6093 9.25822 92.544 9.26011C92.3613 9.26295 92.2676 9.18265 92.2723 8.99247C92.277 8.76631 92.28 8.53907 92.2705 8.31291C92.2639 8.15581 92.3479 8.08655 92.4823 8.06098C92.558 8.0468 92.6375 8.05166 92.7151 8.05167C96.1336 8.05167 99.5524 8.05152 102.972 8.05342ZM98.8207 12.0185C98.2764 12.0384 97.7312 12.0271 97.1869 12.0214C96.7372 12.0167 96.2966 12.1499 95.8441 12.0988C95.8144 12.0956 95.7955 12.0985 95.7836 12.1046C95.7954 12.0988 95.8145 12.0968 95.8435 12.1C96.296 12.151 96.7361 12.0169 97.1858 12.0226C97.7301 12.0292 98.2767 12.0396 98.8201 12.0197C99.5168 11.9942 100.205 12.1547 100.902 12.0988C101.036 12.0885 100.987 12.1676 100.976 12.2309C100.924 12.2271 100.873 12.2204 100.821 12.2204H95.9372C95.8851 12.2204 95.8339 12.2246 95.7818 12.2274C95.7753 12.2602 95.7695 12.2932 95.762 12.3251C95.7419 12.3308 95.7276 12.3392 95.7178 12.3496C95.7274 12.3396 95.7414 12.3318 95.7609 12.3263H95.762C95.7885 12.7433 95.7885 13.1602 95.762 13.5772L95.7626 13.5778V15.3192C95.7556 15.3284 95.7506 15.3391 95.7446 15.3494C95.7504 15.3395 95.7553 15.3293 95.762 15.3203C95.7875 15.4776 95.7872 15.6349 95.762 15.7922L95.7626 15.7934C95.7702 15.8511 95.778 15.9088 95.7865 15.9656V15.9673C97.4634 15.9692 99.1412 15.9714 100.818 15.9714C100.868 15.9714 100.919 15.9533 100.969 15.9429C101.026 15.9653 101.03 15.9924 101.013 16.0139C101.031 15.9923 101.028 15.9651 100.97 15.9423L100.969 15.9429C100.974 15.7243 100.985 15.5056 100.985 15.286C100.984 14.2675 100.979 13.2488 100.976 12.2303C100.989 12.166 101.037 12.0869 100.902 12.0982C100.206 12.1541 99.5174 11.9939 98.8207 12.0185ZM94.4733 9.52833C94.2518 9.99674 93.9782 10.4405 93.8106 10.9363C93.7803 11.0253 93.7196 11.121 93.6628 11.208C93.4735 11.4996 93.3555 11.8255 93.2125 12.1407C93.0686 12.4578 92.9133 12.7769 92.7296 13.0751C92.9132 12.777 93.0696 12.4589 93.2125 12.1419C93.3555 11.8267 93.4735 11.5007 93.6628 11.2092C93.7196 11.1221 93.7803 11.0265 93.8106 10.9375C93.9782 10.4415 94.2518 9.99687 94.4733 9.52833ZM95.4636 10.9986C95.4588 11.0507 95.4836 11.0826 95.5619 11.0841C95.6329 11.0851 95.705 11.0864 95.776 11.0864C97.9175 11.0864 100.06 11.0966 102.202 11.0777C102.588 11.0741 102.778 11.3637 102.779 11.6514C102.779 12.0463 102.779 12.4411 102.779 12.836C102.779 12.4408 102.779 12.0454 102.779 11.6502C102.779 11.3626 102.589 11.0729 102.202 11.0766C100.06 11.0955 97.9175 11.0853 95.776 11.0853C95.705 11.0853 95.6329 11.086 95.5619 11.0841C95.484 11.0827 95.4592 11.0502 95.4636 10.9986ZM103.174 8.07902C103.112 8.1684 103.02 8.12812 102.942 8.12905C99.5477 8.13189 96.1527 8.13102 92.7587 8.13196C92.4542 8.13196 92.3976 8.132 92.3898 8.32978C92.3978 8.13295 92.4548 8.13313 92.7587 8.13313C96.1527 8.13313 99.5477 8.13306 102.942 8.13022C103.019 8.13022 103.112 8.16966 103.174 8.07902Z" fill="var(--fill-0, #A8A19D)"/>
<path fill-rule="evenodd" clip-rule="evenodd" d="M85.177 11.3163C85.566 11.3144 85.954 11.3134 86.343 11.3163C86.6317 11.3182 86.6987 11.3749 86.7025 11.6607C86.7044 11.8292 86.8033 11.8254 86.9207 11.8254C88.2687 11.8244 89.6158 11.8254 90.9638 11.8254C91.1256 11.8254 91.2735 11.8406 91.2471 12.0627C91.1005 12.0968 91.2195 12.2371 91.1488 12.3024C91.1393 12.2996 91.1195 12.2985 91.1185 12.2937C91.1187 12.2945 91.119 12.2953 91.1191 12.296C91.1204 12.3007 91.1402 12.3023 91.1505 12.3042C91.2213 12.2388 91.1023 12.098 91.2489 12.0639V14.7391C91.2478 14.7389 91.2469 14.7382 91.246 14.7379C91.3077 14.9059 91.1617 14.9917 91.0813 15.0824C90.9862 15.1888 90.8827 15.3219 90.7054 15.3093C90.7054 15.3101 90.7054 15.3108 90.7054 15.3116L90.7025 15.3099C90.5739 15.3156 90.4443 15.3241 90.3156 15.325C89.1228 15.3288 87.9308 15.3315 86.738 15.3343C86.7303 15.3203 86.7216 15.3071 86.7124 15.2953C86.7213 15.3068 86.7293 15.3198 86.7369 15.3331C86.6715 15.5225 86.715 15.7187 86.7083 15.9109C86.7055 15.997 86.7702 16.0139 86.8422 16.0139H89.3533C89.4451 16.0139 89.4995 15.9742 89.5156 15.8824C89.5459 15.7102 89.6594 15.6522 89.8222 15.6531C90.2567 15.656 90.6922 15.6523 91.1267 15.6561C91.3757 15.658 91.4166 15.7045 91.4176 15.9563C91.4176 16.1437 91.4183 16.3321 91.4164 16.5195C91.4117 16.8896 91.1258 17.1837 90.7491 17.1857C89.1529 17.1904 87.5557 17.1903 85.9595 17.1903H80.4887C80.093 17.1903 80.0919 17.1887 80.0919 16.7958C80.0919 16.6142 80.0983 16.4325 80.0907 16.2518C80.0831 16.0654 80.1694 15.9978 80.3473 15.9988C80.9901 16.0025 81.6321 15.9988 82.2749 15.9988C83.0474 15.9988 83.8201 15.9943 84.5917 16.0028C84.762 16.0047 84.816 15.9562 84.8122 15.7841C84.8037 15.3487 84.8121 15.3489 84.3834 15.3489C83.2474 15.3489 82.1122 15.3484 80.9763 15.3465C80.555 15.3465 80.2701 15.0627 80.2682 14.6425C80.2644 13.8133 80.2651 12.9839 80.267 12.1547C80.267 11.8945 80.3401 11.8257 80.608 11.8248C81.938 11.8229 83.2692 11.8236 84.5992 11.8236C84.786 11.8236 84.8857 11.7314 84.8983 11.5472C84.903 11.4744 84.9042 11.4017 84.996 11.3808C85.0507 11.5368 84.9911 11.6872 84.9646 11.8376C84.9457 11.9474 84.851 11.937 84.7639 11.9417C84.3057 11.972 83.8494 11.9654 83.3902 11.9493C82.4956 11.918 81.599 11.939 80.7034 11.94C80.4621 11.94 80.4216 11.9797 80.4206 12.2227C80.4197 13.0065 80.4178 13.7907 80.4206 14.5745C80.422 14.84 80.5451 15.0406 80.7493 15.14C80.5477 15.04 80.4259 14.8404 80.4253 14.5762C80.4224 13.7925 80.4234 13.0088 80.4253 12.2251C80.4253 11.9819 80.4668 11.9417 80.708 11.9417C81.6036 11.9417 82.5003 11.9204 83.3949 11.9516C83.8549 11.9677 84.3113 11.9728 84.7686 11.9435C84.8546 11.9378 84.9502 11.9484 84.9693 11.8399C84.9948 11.6894 85.0555 11.5387 85.0007 11.3826L85.0094 11.3756C85.0766 11.4087 85.1495 11.3968 85.2195 11.3977C85.5621 11.3987 85.906 11.3996 86.2487 11.3977C86.329 11.3977 86.395 11.4077 86.4413 11.439C86.3949 11.4064 86.3279 11.396 86.2464 11.396C85.9037 11.3979 85.5598 11.3969 85.2171 11.396C85.1472 11.396 85.0742 11.4069 85.0071 11.3739C85.0421 11.2934 85.1164 11.3163 85.177 11.3163ZM84.9518 15.2814C85.001 15.3165 85.0188 15.3788 85.0164 15.4611C85.0136 15.5643 85.0164 15.6684 85.0164 15.7724C85.0164 16.0829 84.9627 16.1361 84.6371 16.1361C83.8778 16.1361 83.1185 16.1288 82.3592 16.1401C82.0213 16.1458 81.6872 16.0844 81.3521 16.1023C81.069 16.1175 80.7865 16.1264 80.5044 16.0971C80.3512 16.0811 80.2955 16.1504 80.3002 16.3007C80.3049 16.4484 80.3079 16.5955 80.2728 16.7441C80.2591 16.802 80.2719 16.8537 80.3013 16.8959C80.2722 16.8538 80.2599 16.8022 80.274 16.7446C80.3099 16.5961 80.3061 16.4485 80.3013 16.3019C80.2966 16.1524 80.3513 16.0822 80.5056 16.0982C80.7876 16.1276 81.0697 16.118 81.3527 16.1029C81.6878 16.0849 82.0224 16.1464 82.3604 16.1407C83.1196 16.1294 83.879 16.1382 84.6382 16.1372C84.9637 16.1372 85.0176 16.083 85.0176 15.7736C85.0176 15.6695 85.0147 15.5664 85.0176 15.4623C85.0199 15.38 85.0021 15.3171 84.953 15.2819L84.9518 15.2814ZM89.8601 15.748C89.7455 15.747 89.6688 15.7613 89.6413 15.9033C89.61 16.0642 89.4972 16.143 89.3155 16.1401C88.6083 16.1326 87.9011 16.1363 87.193 16.1372C87.0245 16.1372 86.8615 16.0907 86.6921 16.0907C86.6574 16.0906 86.6227 16.0826 86.5926 16.0662C86.6229 16.0831 86.6581 16.0918 86.6932 16.0918C86.8627 16.0918 87.0266 16.1378 87.1942 16.1378C87.9013 16.1378 88.6085 16.1331 89.3166 16.1407C89.4984 16.1426 89.6112 16.0648 89.6425 15.9039C89.67 15.7622 89.7458 15.7482 89.8612 15.7491C90.2247 15.752 90.5881 15.749 90.9516 15.7509C91.0188 15.7509 91.0781 15.7613 91.1278 15.7806C91.0779 15.761 91.0182 15.75 90.9504 15.7497C90.5869 15.7488 90.2235 15.7518 89.8601 15.748ZM84.775 15.2162C84.7904 15.2216 84.8055 15.2299 84.8198 15.2424H81.7105C81.7341 15.2802 81.7598 15.2843 81.7844 15.2843H81.7856C81.7619 15.2839 81.7382 15.279 81.7146 15.2435H84.8227C84.8073 15.2305 84.7916 15.2214 84.775 15.2162ZM91.1732 12.7208V12.8592C91.1732 13.4215 91.1724 13.9837 91.1761 14.5459C91.1761 14.6042 91.1382 14.6863 91.2099 14.724C91.1422 14.6855 91.179 14.6051 91.179 14.5477C91.1743 13.9855 91.1761 13.4232 91.1761 12.861V12.6544C91.1749 12.6765 91.1743 12.6987 91.1732 12.7208ZM82.0433 12.9762C82.0073 13.2791 82.0195 13.5842 82.0299 13.8862C82.047 14.3745 81.9371 14.3289 82.4919 14.3441C83.235 14.3639 83.9791 14.3644 84.7232 14.3237C84.8763 14.3151 84.9458 14.2694 84.9704 14.1724C84.9451 14.2676 84.8761 14.3129 84.7243 14.3214C83.9803 14.3611 83.2361 14.3612 82.4931 14.3423C81.9374 14.3281 82.0481 14.3736 82.0311 13.8844C82.0207 13.5825 82.0079 13.2783 82.0439 12.9744L82.0433 12.9762ZM88.3857 12.7702C87.858 12.7569 87.3284 12.7304 86.7997 12.7964C87.3272 12.7313 87.8582 12.7579 88.3857 12.7702ZM89.2701 12.9727C88.4864 12.9765 87.7027 12.9765 86.919 12.9727C86.7912 12.9727 86.7483 13.0219 86.7502 13.1449C86.7559 13.4298 86.7569 13.7141 86.7502 13.999C86.7465 14.138 86.8035 14.1766 86.9341 14.1747C87.3231 14.1691 87.7111 14.173 88.1001 14.173L88.0995 14.1718C88.4884 14.1718 88.8765 14.1689 89.2654 14.1736C89.3847 14.1755 89.4446 14.1453 89.4417 14.0118C89.4351 13.7213 89.4351 13.4296 89.4417 13.1391C89.4445 13.0114 89.3941 12.9718 89.2701 12.9727ZM83.4635 12.9733C83.0626 12.9733 82.6606 12.9763 82.2597 12.9715C82.1387 12.9697 82.082 13.003 82.0858 13.1345C82.0924 13.425 82.0905 13.7166 82.0858 14.0072C82.0839 14.116 82.1115 14.1739 82.2365 14.173C83.0335 14.1692 83.8296 14.1702 84.6266 14.173C84.7591 14.173 84.8133 14.1188 84.8104 13.9862C84.8057 13.708 84.8048 13.4298 84.8104 13.1525C84.8133 13.0181 84.7639 12.9687 84.6295 12.9715C84.2415 12.9772 83.8525 12.9733 83.4635 12.9733ZM86.5867 11.8864C86.6245 11.9189 86.677 11.9393 86.7462 11.9411C87.6247 11.9639 88.5046 11.936 89.3841 11.9644C89.812 11.9776 90.2484 11.9531 90.681 11.9446C90.8647 11.9409 90.9572 11.9402 91.0121 11.9842C90.9575 11.9385 90.8652 11.9391 90.6793 11.9429C90.2466 11.9514 89.8097 11.9759 89.3818 11.9627C88.5024 11.9352 87.6229 11.9625 86.7444 11.9388C86.6764 11.937 86.6244 11.9179 86.5867 11.8864Z" fill="var(--fill-0, #A8A19D)"/>
<path fill-rule="evenodd" clip-rule="evenodd" d="M78.0369 8.00105C78.2763 8.00108 78.512 8.03189 78.6984 8.21924C78.7579 8.27877 78.7866 8.33726 78.8055 8.41473C78.9058 8.83868 78.7344 9.15023 78.4325 9.43698C77.7055 10.127 76.9999 10.84 76.2728 11.531C75.3138 12.4425 74.3948 13.3929 73.4178 14.2865C72.937 14.7266 72.4805 15.1951 72.011 15.6485C71.9807 15.6778 71.9571 15.7015 71.9749 15.7468C71.991 15.7875 72.0174 15.8096 72.0628 15.8097C72.1081 15.8097 72.1536 15.8102 72.1989 15.8102H78.3336C78.647 15.8102 78.6938 15.8569 78.6938 16.1692C78.6938 16.3964 78.6968 16.6228 78.692 16.85C78.6873 17.1054 78.6158 17.1734 78.3697 17.1734C75.3961 17.1734 72.4234 17.1716 69.4498 17.1764C69.1441 17.1763 68.8676 17.0919 68.7644 16.8098C68.649 16.4937 68.6766 16.149 68.9529 15.8963C69.081 15.7785 69.1715 15.6152 69.3433 15.5455L69.3439 15.5443L69.3474 15.5409C69.3608 15.544 69.3738 15.5447 69.3858 15.5449C69.374 15.5447 69.3616 15.5439 69.3486 15.5409C69.4234 15.3544 69.5977 15.2521 69.7302 15.1196C70.6987 14.1542 71.6745 13.1952 72.6533 12.2402C73.1617 11.7442 73.6817 11.2585 74.1957 10.7682C74.2251 10.7407 74.2555 10.7181 74.2981 10.7228L74.3092 10.7135C74.313 10.7113 74.3174 10.7099 74.3226 10.7094C74.3831 10.5637 74.4834 10.4593 74.6338 10.4063L74.642 10.3987L74.6839 10.3254C74.7897 10.1615 74.9419 10.0445 75.1092 9.94433L75.1132 9.94084C75.1491 9.95638 75.1759 9.95043 75.1988 9.9356L75.2005 9.93386C75.1776 9.94867 75.1509 9.95478 75.115 9.93968C75.2116 9.72774 75.433 9.63004 75.5711 9.43698C75.5106 9.36255 75.4205 9.39451 75.3448 9.39451C73.3001 9.39262 71.2554 9.39393 69.2107 9.39393C68.9267 9.39393 68.8535 9.32633 68.8488 9.04426C68.845 8.81145 68.845 8.57771 68.8488 8.34491C68.8526 8.07239 68.9282 7.99936 69.195 7.99931C72.1421 7.99931 75.0898 7.99821 78.0369 8.00105ZM73.6895 13.8501C73.4765 14.0943 73.1689 14.244 72.971 14.5203C72.8981 14.6216 72.7964 14.7381 72.697 14.8072C72.3733 15.0334 72.1424 15.3401 71.8935 15.6316C71.7836 15.7603 71.8631 15.9071 72.0325 15.9033C72.6223 15.8929 73.2112 15.9337 73.8001 15.9394C74.8575 15.9498 75.9159 15.9522 76.9733 15.9371C77.4125 15.9305 77.8528 15.9013 78.2929 15.9051C78.467 15.907 78.5591 15.9865 78.5582 16.1634C78.5582 16.3451 78.5676 16.5272 78.5553 16.708C78.5447 16.8546 78.5309 16.9517 78.4651 16.9972C78.5325 16.9522 78.5464 16.8549 78.557 16.7068C78.5703 16.5261 78.56 16.3445 78.56 16.1628C78.56 15.9859 78.4693 15.9059 78.2952 15.9039C77.855 15.9001 77.4143 15.9299 76.9751 15.9365C75.9177 15.9516 74.8592 15.9487 73.8018 15.9382C73.213 15.9326 72.624 15.8918 72.0343 15.9022C71.864 15.9049 71.7854 15.7591 71.8952 15.6305C72.1442 15.3389 72.3755 15.0322 72.6993 14.806C72.7977 14.7369 72.8999 14.6204 72.9727 14.5192C73.1706 14.2429 73.4783 14.0931 73.6913 13.8489C73.7201 13.8157 73.7511 13.7845 73.7815 13.7529C73.7505 13.7849 73.719 13.8165 73.6895 13.8501ZM76.7394 8.12905C74.2165 8.21045 71.6935 8.14139 69.1705 8.16222C69.1143 8.16258 69.0716 8.16754 69.0402 8.18258C69.0714 8.16834 69.1135 8.16373 69.1688 8.16338C71.6918 8.14256 74.2157 8.21162 76.7377 8.13022C77.2688 8.11318 77.7981 8.19054 78.3301 8.16687C78.4654 8.16124 78.6982 8.35888 78.7136 8.49327C78.7476 8.79231 78.6739 9.05197 78.4279 9.24789C78.2925 9.3558 78.1651 9.48004 78.0543 9.60688C77.8007 9.89832 77.5141 10.156 77.2415 10.4267C76.8478 10.8185 76.4359 11.194 76.0459 11.5915C75.7506 11.8915 75.4539 12.1934 75.1301 12.4613C74.8234 12.7159 74.5696 13.021 74.2789 13.2898C74.1933 13.3688 74.1045 13.4465 74.0165 13.526C74.1052 13.4461 74.1951 13.3681 74.2812 13.2886C74.5717 13.0199 74.8253 12.7152 75.1319 12.4607C75.4547 12.1928 75.7523 11.8909 76.0477 11.5909C76.4377 11.1933 76.8495 10.8183 77.2433 10.4255C77.515 10.1548 77.802 9.89726 78.0567 9.60571C78.1665 9.47985 78.2943 9.35461 78.4296 9.24673C78.6756 9.05083 78.7493 8.79073 78.7153 8.49269C78.7002 8.35828 78.4673 8.15966 78.3319 8.16629C77.7999 8.18994 77.2705 8.11202 76.7394 8.12905Z" fill="var(--fill-0, #A8A19D)"/>
<path d="M41.9524 11.8341C42.1645 11.8341 42.2176 11.9601 42.227 12.1087C42.245 12.3992 42.2395 12.6915 42.2329 12.982C42.2291 13.141 42.1047 13.1546 41.9798 13.1537H38.6326L38.6314 13.1542H35.3226C35.0132 13.1542 34.9811 13.1212 34.981 12.808C34.981 12.5875 34.9773 12.3677 34.981 12.1471C34.9849 11.9456 35.0937 11.8388 35.2952 11.8387C37.5143 11.8387 39.7334 11.8407 41.9524 11.8341Z" fill="var(--fill-0, #A8A19D)"/>
<path fill-rule="evenodd" clip-rule="evenodd" d="M90.4838 9.87626C90.7507 9.87626 91.0068 9.92395 91.1715 10.1852C91.2309 10.2786 91.2776 10.3587 91.246 10.468C91.246 10.7633 91.2452 11.0588 91.2442 11.3541C91.2007 11.3475 91.1744 11.3257 91.1744 11.2784C91.1744 11.0333 91.174 10.7881 91.175 10.543C91.175 10.7881 91.1753 11.0334 91.1744 11.2784C91.1744 11.3258 91.2007 11.3486 91.2442 11.3552C91.2422 11.5018 91.1513 11.5597 91.0208 11.5606C90.5626 11.5635 90.1044 11.5654 89.6471 11.5606C89.4947 11.5587 89.387 11.4231 89.3766 11.2424C89.3709 11.1496 89.4019 11.0464 89.3044 10.9782C89.3451 10.962 89.3802 10.953 89.4097 10.9515C89.3799 10.9528 89.3443 10.9612 89.3033 10.9776C87.0837 10.9767 84.8641 10.9766 82.6455 10.9747C82.5546 10.9747 82.4635 10.9716 82.3726 10.9707C82.2502 10.9738 82.2144 11.0365 82.2144 11.1574C82.2143 11.4648 82.1102 11.5612 81.8065 11.5612C81.4174 11.5612 81.0273 11.5631 80.6382 11.5612C80.3807 11.5593 80.2736 11.4504 80.2717 11.1929C80.2707 10.9989 80.2878 10.802 80.267 10.6099C80.2434 10.3876 80.3541 10.2108 80.4695 10.0613C80.5935 9.89941 80.8154 9.87335 81.0199 9.87335C82.2921 9.8724 83.5644 9.87335 84.8366 9.87335C86.7186 9.87335 88.6018 9.87153 90.4838 9.87626ZM82.2772 10.8566C82.0641 10.8653 82.0423 10.9179 82.0282 11.1952C82.0225 11.3078 81.9853 11.3947 81.867 11.3966C81.6692 11.3994 81.4714 11.4005 81.2736 11.4C81.4717 11.4005 81.6701 11.3994 81.8682 11.3966C81.9872 11.3945 82.0225 11.3067 82.0282 11.1952C82.0443 10.8793 82.0724 10.8555 82.3813 10.8555L82.2772 10.8566ZM90.8561 10.1195C90.9641 10.1744 91.0313 10.2126 91.0644 10.3243C91.1307 10.5476 91.1166 10.7777 91.0929 10.9992C91.056 11.3427 90.9676 11.3997 90.6164 11.4006H90.6176C90.9696 11.4006 91.057 11.3426 91.0929 10.9992C91.1166 10.7777 91.1297 10.5476 91.0644 10.3243C91.0313 10.2126 90.9641 10.1744 90.8561 10.1195ZM82.4459 10.8828C82.481 10.8782 82.5226 10.8891 82.5565 10.8886C83.1526 10.8858 83.7487 10.8863 84.3438 10.8863C83.7479 10.8863 83.152 10.8852 82.5571 10.888C82.5233 10.888 82.4814 10.8776 82.4459 10.8828Z" fill="var(--fill-0, #A8A19D)"/>
<path fill-rule="evenodd" clip-rule="evenodd" d="M89.6791 7.75785C89.7936 7.75785 89.8711 7.81571 89.8665 7.93298C89.8608 8.08254 89.9408 8.09895 90.062 8.09705C90.4387 8.09233 90.8155 8.10339 91.1913 8.09298C91.3568 8.0883 91.4204 8.16915 91.4252 8.30825C91.4337 8.57983 91.4326 8.85239 91.4298 9.12397C91.4288 9.26778 91.3227 9.28105 91.211 9.28106C90.8277 9.28106 90.4453 9.28557 90.062 9.27989C89.9247 9.278 89.84 9.29453 89.8513 9.46491C89.8607 9.60299 89.7906 9.69 89.6326 9.70229C89.1659 9.73918 88.6991 9.71437 88.2315 9.71626C88.0575 9.71618 88.0186 9.56859 87.9779 9.43989C87.9615 9.38789 87.9734 9.32846 87.9412 9.27931L87.9389 9.27698C87.6617 9.2732 87.3835 9.26615 87.1063 9.26709C85.9494 9.26709 84.7921 9.27044 83.6352 9.27233C83.6344 9.27214 83.6336 9.27194 83.6328 9.27175C83.6263 9.3291 83.6214 9.38662 83.6148 9.44397C83.5959 9.61899 83.4962 9.7184 83.3221 9.72033C82.8678 9.72506 82.4133 9.72412 81.9589 9.72033C81.7762 9.71844 81.6594 9.63213 81.6698 9.43524C81.6764 9.3123 81.6227 9.28093 81.5092 9.2828C81.1201 9.28753 80.73 9.27982 80.3409 9.28455C80.1602 9.28644 80.0805 9.2139 80.089 9.02855C80.0984 8.81565 80.0851 8.60064 80.0936 8.3868C80.1021 8.15972 80.1656 8.10074 80.3898 8.0988C80.7467 8.09596 81.104 8.09312 81.4609 8.0988C81.583 8.10067 81.6653 8.07506 81.6709 7.9388C81.6766 7.80345 81.7659 7.76076 81.8804 7.76076C82.3802 7.75792 82.88 7.75603 83.3797 7.76076C83.5094 7.76171 83.6267 7.79965 83.6154 7.97371C83.6097 8.06363 83.6696 8.09778 83.7539 8.09589H87.7492C87.8454 8.09227 87.9221 8.06497 87.9313 7.90447C87.9381 7.78826 88.0776 7.76091 88.1798 7.75902C88.6795 7.75334 89.1793 7.75596 89.6791 7.75785ZM88.0721 9.25371C88.0859 9.27498 88.092 9.30807 88.0913 9.34564C88.089 9.44536 88.1135 9.50431 88.1606 9.53764C88.1148 9.50417 88.0913 9.44581 88.0937 9.34738C88.0944 9.30972 88.0877 9.27672 88.0739 9.25546L88.0721 9.25371ZM81.7576 9.27873C81.7745 9.28935 81.7853 9.30479 81.7827 9.33284C81.7748 9.41943 81.7946 9.47792 81.8304 9.51728C81.7957 9.47797 81.7763 9.42037 81.7844 9.33517C81.7873 9.30582 81.7758 9.28949 81.7576 9.27873ZM80.3834 9.22113H80.3851V9.17517H81.6192C81.6103 9.17445 81.6012 9.17411 81.5924 9.17342H80.3834V9.22113ZM91.36 9.10186L91.3606 9.10244V8.40251L91.36 9.10186ZM83.1592 7.8876C82.8156 7.90085 82.4717 7.89335 82.1271 7.89051C82.0108 7.88961 81.9492 7.93058 81.8915 8.04411C81.8261 8.17274 81.7249 8.28829 81.5395 8.28265C81.1958 8.27129 80.851 8.28441 80.5073 8.27684C80.3598 8.27403 80.3078 8.32317 80.2955 8.4764C80.2823 8.643 80.269 8.8098 80.2624 8.97735C80.2606 9.02653 80.2665 9.06264 80.2816 9.08847C80.2676 9.06283 80.2624 9.0271 80.2641 8.97909C80.2707 8.81155 80.284 8.64474 80.2973 8.47815C80.3096 8.32507 80.3616 8.27581 80.509 8.27858C80.8527 8.28521 81.1976 8.27304 81.5412 8.2844C81.7267 8.29008 81.8279 8.17453 81.8932 8.04585C81.95 7.93321 82.013 7.89131 82.1294 7.89225C82.473 7.89509 82.8174 7.90259 83.161 7.88934C83.2455 7.8865 83.3145 7.92924 83.3489 7.97138C83.3152 7.92864 83.2449 7.88473 83.1592 7.8876ZM89.7868 8.20527C89.8502 8.27625 89.9473 8.28006 90.0462 8.28149C90.3321 8.28433 90.6174 8.28324 90.9033 8.28324C90.9752 8.28324 91.0357 8.29955 91.1028 8.33734C91.1164 8.34499 91.1289 8.35481 91.1406 8.36585C91.1284 8.35406 91.1154 8.34364 91.1011 8.3356C91.0339 8.29775 90.9734 8.2815 90.9015 8.28149C90.6156 8.28149 90.3304 8.28258 90.0445 8.27974C89.9464 8.27904 89.8503 8.27466 89.7868 8.20527ZM89.5086 7.90854C89.4492 7.84771 89.3334 7.90327 89.259 7.89923C88.994 7.88409 88.7251 7.91443 88.4619 7.88702C88.2358 7.86336 88.1142 7.98131 88.0867 8.15349C88.064 8.2954 88.0017 8.27976 87.9156 8.27974C87.2927 8.27974 86.6688 8.25608 86.0468 8.28731C85.3084 8.32422 84.5734 8.25317 83.8359 8.27684C83.6889 8.28175 83.5384 8.27911 83.4443 8.16803C83.538 8.28091 83.6897 8.28353 83.8382 8.27858C84.5747 8.25494 85.3102 8.32597 86.0486 8.28905C86.6696 8.25782 87.2944 8.28244 87.9174 8.28149C88.0035 8.28149 88.0663 8.29761 88.089 8.15582C88.1165 7.98354 88.2384 7.8651 88.4637 7.88876C88.7268 7.9162 88.9957 7.88584 89.2608 7.90098C89.3343 7.90504 89.4487 7.85074 89.5086 7.90854ZM89.579 8.022C89.5722 8.022 89.5583 8.03968 89.5511 8.04178C89.5556 8.0494 89.5725 8.02457 89.5808 8.02374C89.6152 8.02097 89.6483 8.02676 89.6756 8.04062C89.648 8.02609 89.6143 8.01965 89.579 8.022Z" fill="var(--fill-0, #A8A19D)"/>
</g>
</g>
</svg>
