<svg preserveAspectRatio="none" width="100%" height="100%" overflow="visible" style="display: block;" viewBox="0 0 40.3877 34.3992" fill="none" xmlns="http://www.w3.org/2000/svg">
<g id="Union">
<path d="M16.0804 33.58L12.8718 34.3992V19.9699L3.233 22.4162V33.58L0.0244402 34.3992V18.0615L3.233 17.2567V19.1134L16.0804 15.8298V33.58Z" fill="var(--fill-0, #070707)"/>
<path d="M40.3683 19.7466L33.6992 21.4311V33.5794L30.4907 34.3948V22.2415L23.8223 23.9266V20.7323L30.4907 19.0472V17.7826L33.6992 16.9741V18.2368L40.3683 16.5523V19.7466Z" fill="var(--fill-0, #070707)"/>
<path d="M27.6519 32.1576L24.4433 32.973V25.8326L27.6625 25.0178L27.6519 32.1576Z" fill="var(--fill-0, #070707)"/>
<path d="M9.86318 32.1538L6.65462 32.933V23.8761L9.86318 23.0626V32.1538Z" fill="var(--fill-0, #070707)"/>
<path d="M39.7472 30.4306L36.5387 31.2461V22.7699L39.7472 21.9545V30.4306Z" fill="var(--fill-0, #070707)"/>
<path fill-rule="evenodd" clip-rule="evenodd" d="M40.3683 3.19492L37.1603 4.00472V5.99492L40.3488 5.19447L40.3877 13.7554L23.8423 17.928L23.8035 9.3483L27.0296 8.53787V6.56452L23.8223 7.37495V4.18066L40.3683 0V3.19492ZM27.0239 11.8332L27.0308 13.8278L30.4907 12.955V10.9629L27.0239 11.8332ZM33.6992 10.1575V12.1458L37.1666 11.2717L37.1597 9.28903L33.6992 10.1575ZM30.2381 5.75347V7.73244L33.9518 6.80035V4.81577L30.2381 5.75347Z" fill="var(--fill-0, #070707)"/>
<path d="M9.86255 4.12014L16.5454 2.43191V5.6262L9.86255 7.31443V10.2099L16.5454 8.52165V11.7159L0 15.8966V12.7023L6.6659 11.0178L6.68595 8.11675L0 9.80623V6.61194L6.70789 4.91684L6.7317 1.56533L9.86255 0.639483V4.12014Z" fill="var(--fill-0, #070707)"/>
</g>
</svg>
