<svg preserveAspectRatio="none" width="100%" height="100%" overflow="visible" style="display: block;" viewBox="0 0 66.3833 23.4581" fill="none" xmlns="http://www.w3.org/2000/svg">
<g id="Group 3">
<path id="Vector" d="M4.83929 11.7584C7.96585 10.522 9.08794 1.15867 9.08794 1.15867C9.16649 0.631282 9.65001 0.12328 10.1723 0.0396326L10.1927 0.0365723C11.7799 -0.218449 12.9571 0.888344 12.8378 2.50518L12.492 7.15983C12.445 7.7933 12.9071 8.24112 13.5233 8.16665L17.7301 7.65967C18.793 7.53216 19.5051 8.29008 19.3245 9.35301C19.3245 9.35301 19.1817 10.0916 19.1072 10.8148C19.0338 11.538 19.4255 11.5595 19.3439 12.6081C19.2623 13.6568 18.9307 13.8404 18.8634 14.6462C18.7961 15.4531 19.0124 15.6867 18.9685 16.4416C18.9103 17.4453 18.336 17.5994 18.4156 18.2471C18.4952 18.8949 18.4482 19.3294 18.4482 19.3294C18.435 19.8558 17.9902 20.3771 17.4669 20.4719L4.83827 22.7712V11.7584H4.83929ZM3.8702 22.9436L1.10781 23.4404C0.497802 23.5506 0 23.1354 0 22.5142V13.5741C0 13.112 0.372331 12.6662 0.83239 12.5785C0.83239 12.5785 2.74811 12.2164 3.87122 11.991V22.9436H3.8702Z" fill="var(--fill-0, #E60113)"/>
<g id="Subtract">
<path fill-rule="evenodd" clip-rule="evenodd" d="M34.4293 2.131C34.4584 2.13505 34.4754 2.16073 34.4677 2.18892C34.4099 2.39877 34.165 3.47625 33.695 4.65905C33.6706 4.72053 33.7147 4.78984 33.7801 4.78984H44.0716C44.1224 4.78984 44.1632 4.8315 44.1632 4.8842V6.336C44.1633 6.34815 44.1611 6.36022 44.1566 6.3715C44.1521 6.3828 44.1455 6.39363 44.137 6.40233C44.1286 6.4109 44.1182 6.41721 44.1071 6.42195C44.0959 6.42673 44.0838 6.4293 44.0716 6.42943H32.8692C32.8523 6.42929 32.8359 6.43457 32.8215 6.44344C32.807 6.45243 32.7953 6.46543 32.7879 6.48081C32.4661 7.14748 32.127 7.80599 31.7724 8.45579H42.2979C42.3466 8.45579 42.3856 8.49659 42.3857 8.54827V21.4694C42.3857 22.1086 41.8966 22.626 41.2936 22.626H38.375C38.3561 22.6256 38.3376 22.6191 38.3227 22.6073C38.3077 22.5956 38.2967 22.579 38.2919 22.5606L37.9088 21.2303C37.8913 21.1717 37.9334 21.1116 37.9929 21.1116H40.1912C40.4927 21.1116 40.7367 20.8524 40.7367 20.5333V18.3463C40.7367 18.2956 40.6977 18.2529 40.6489 18.2529H31.1106C31.0628 18.2529 31.0237 18.2956 31.0237 18.3463V22.5335C31.0235 22.584 30.9844 22.6259 30.9359 22.626H29.3636C29.3517 22.6258 29.3398 22.6233 29.329 22.6186C29.3181 22.6137 29.3082 22.6066 29.3 22.598C29.2919 22.5894 29.2855 22.5792 29.2813 22.5681C29.2772 22.5571 29.2754 22.5453 29.2757 22.5335V11.9755C28.6457 12.7047 27.4349 13.9734 26.0063 14.9861C25.9721 15.0056 25.9281 15.0097 25.8988 14.9824C25.4704 14.5676 25.216 14.2785 24.7544 13.8491C24.7095 13.8062 24.7083 13.7348 24.76 13.6997C27.7908 11.628 29.6177 8.87459 30.8512 6.56676C30.8585 6.55257 30.862 6.536 30.8615 6.52005C30.8609 6.50422 30.8566 6.48879 30.8484 6.4752C30.8402 6.46155 30.8286 6.45045 30.8148 6.4425C30.8011 6.43462 30.7857 6.42972 30.7699 6.42943H24.8431C24.8186 6.42917 24.7951 6.41964 24.7777 6.40233C24.7604 6.38479 24.7507 6.36068 24.7507 6.336V4.8842C24.7507 4.8315 24.7924 4.78984 24.8431 4.78984H31.7509C31.7694 4.78952 31.7879 4.78436 31.8032 4.77396C31.8183 4.76362 31.8298 4.74882 31.8368 4.73192C32.4126 3.36081 32.6773 2.14527 32.729 1.94229C32.7319 1.93161 32.7385 1.9222 32.7477 1.91613C32.757 1.91004 32.7685 1.90786 32.7795 1.90959L34.4293 2.131ZM31.1106 14.3209C31.0628 14.3209 31.0237 14.3636 31.0237 14.4144L31.0228 16.5433C31.0228 16.595 31.0618 16.6367 31.1106 16.6367H40.6499C40.6977 16.6367 40.7367 16.595 40.7367 16.5433V14.4144C40.7367 14.3636 40.6977 14.321 40.6489 14.3209H31.1106ZM31.1106 10.3058C31.0628 10.3058 31.0237 10.3475 31.0237 10.3983V12.6122C31.0237 12.663 31.0627 12.7047 31.1115 12.7047H40.6508C40.6986 12.7047 40.7377 12.663 40.7377 12.6122L40.7367 10.3983C40.7367 10.3476 40.6977 10.3058 40.6489 10.3058H31.1106Z" fill="var(--fill-0, #231916)"/>
<path d="M57.9488 15.6765C58.013 15.6766 58.0603 15.7329 58.0487 15.7952C57.8955 16.6276 57.041 20.6828 48.0057 22.2208C47.9637 22.2287 47.9254 22.2018 47.901 22.1667C47.5381 21.629 47.2572 21.098 46.9547 20.6345C46.9157 20.578 46.9659 20.5686 47.0341 20.557V20.4953C55.2548 19.1681 56.0002 16.3104 56.1261 15.7522C56.1314 15.7303 56.1437 15.7108 56.1616 15.6971C56.1797 15.6832 56.2023 15.6759 56.2251 15.6765H57.9488Z" fill="var(--fill-0, #231916)"/>
<path d="M58.145 18.482C62.8426 19.1661 65.7109 20.339 66.3354 20.6747C66.3851 20.7011 66.3985 20.7717 66.3644 20.8195L65.3834 22.2031C65.3708 22.2204 65.3495 22.2276 65.3311 22.218C64.9173 22.0112 61.2961 20.3368 57.1995 19.6965C57.1331 19.6868 57.1014 19.598 57.1453 19.5433C57.3815 19.2584 57.819 18.8283 58.0599 18.5278C58.0824 18.4986 58.1108 18.4772 58.145 18.482Z" fill="var(--fill-0, #231916)"/>
<path d="M63.5532 12.8701C63.5824 12.8702 63.6056 12.8932 63.6056 12.9214L63.5981 18.5278C63.5979 18.5415 63.595 18.5554 63.5897 18.568C63.5843 18.5804 63.5769 18.5921 63.5673 18.6016C63.5575 18.6112 63.5454 18.618 63.5327 18.6231C63.52 18.6282 63.5062 18.6316 63.4925 18.6315H61.8726C61.8589 18.6317 61.8451 18.6291 61.8324 18.624C61.8196 18.619 61.8077 18.6112 61.7978 18.6016C61.788 18.592 61.7799 18.5806 61.7745 18.568C61.7691 18.5553 61.7662 18.5416 61.7661 18.5278L61.7735 14.7815C61.7734 14.7678 61.7714 14.754 61.7661 14.7413C61.7607 14.7288 61.7525 14.7173 61.7427 14.7077C61.733 14.6982 61.7216 14.6904 61.7091 14.6853C61.6964 14.6802 61.6825 14.6777 61.6689 14.6778H51.681C51.6674 14.6777 51.6534 14.6803 51.6408 14.6853C51.6281 14.6904 51.616 14.6981 51.6062 14.7077C51.5965 14.7172 51.5892 14.7289 51.5838 14.7413C51.5784 14.754 51.5755 14.7678 51.5754 14.7815V18.3774C51.5754 18.4105 51.5274 18.481 51.4689 18.4811H49.8246C49.811 18.4813 49.7972 18.4786 49.7845 18.4736C49.7716 18.4685 49.7598 18.4608 49.7499 18.4512C49.74 18.4416 49.732 18.4302 49.7265 18.4176C49.7211 18.4049 49.7183 18.3912 49.7181 18.3774V12.9214C49.7181 12.8923 49.7423 12.8702 49.7705 12.8701H63.5532Z" fill="var(--fill-0, #231916)"/>
<path d="M52.8712 1.90959C52.9238 1.90965 52.9665 1.94857 52.9665 1.99927V3.47163C52.9665 3.52043 53.01 3.56132 53.0627 3.56132H55.4609C55.5134 3.56132 55.5569 3.60046 55.5571 3.65101V4.81693C55.5569 4.86655 55.5135 4.90662 55.4609 4.90662H53.0627C53.01 4.90662 52.9665 4.94654 52.9665 4.99631V6.6116C52.9667 6.66023 53.0101 6.70129 53.0627 6.70129H55.9402C55.9928 6.70129 56.0354 6.74121 56.0354 6.79098V7.9569C56.0354 8.0057 55.9928 8.04659 55.9402 8.04659H54.0203C53.9678 8.04676 53.9251 8.08576 53.925 8.13628V9.49466C53.925 9.55711 53.9915 9.60021 54.0539 9.57874L55.8953 9.02754C55.9528 9.00804 56.0154 9.04204 56.0233 9.09854L56.1989 10.2308C56.202 10.2515 56.1978 10.2728 56.1868 10.2906C56.1757 10.3085 56.1582 10.3215 56.1382 10.328L51.9594 11.8566C51.8999 11.878 51.8336 11.8403 51.8286 11.7809V10.4158C51.8273 10.3959 51.8332 10.3763 51.8445 10.3598C51.8558 10.3431 51.872 10.3303 51.8912 10.3243L52.1864 10.2234C52.2042 10.2176 52.2191 10.2057 52.2303 10.1907C52.2414 10.1757 52.2477 10.1579 52.248 10.1393V8.13628C52.2479 8.08662 52.2054 8.04659 52.1528 8.04659H51.1541C51.0977 8.04682 51.0539 8.09119 51.0588 8.14375C51.1368 9.07392 50.9735 11.1137 48.2962 12.189C48.2803 12.195 48.2627 12.1972 48.2458 12.1955C48.229 12.1938 48.2124 12.1886 48.1981 12.1797C47.8185 11.9523 47.3046 11.659 46.9836 11.4678C46.9175 11.4287 46.931 11.3352 47.006 11.3099C49.192 10.5624 49.4781 8.94047 49.4762 8.13441C49.4761 8.08569 49.4316 8.04659 49.3799 8.04659H47.1172C47.0646 8.04654 47.0219 8.00567 47.0219 7.9569V6.79098C47.0219 6.74221 47.0646 6.70134 47.1172 6.70129H51.1942C51.2468 6.70129 51.2902 6.6612 51.2905 6.6116V4.99631C51.2905 4.94751 51.2469 4.90662 51.1942 4.90662H49.2258C49.2117 4.90659 49.1975 4.90907 49.1847 4.91503C49.1718 4.92107 49.1602 4.93021 49.1511 4.94119C48.9364 5.20654 48.6885 5.69645 48.4027 5.94829C48.3859 5.96311 48.3644 5.97208 48.342 5.97352C48.3196 5.97493 48.2971 5.96929 48.2785 5.9567C48.0823 5.81715 47.5044 5.44677 47.276 5.28966C47.2276 5.25642 47.2267 5.19123 47.2714 5.15326C48.4422 4.16292 48.9113 2.78254 49.0109 2.45238C49.0236 2.41049 49.0669 2.38409 49.1137 2.38885L50.4263 2.54207C50.4536 2.54596 50.4732 2.56906 50.4674 2.59438C50.394 2.88229 50.2988 3.16462 50.1824 3.438C50.1574 3.49645 50.2021 3.56126 50.2703 3.56132H51.1942C51.2469 3.56132 51.2905 3.5214 51.2905 3.47163V1.99834C51.2905 1.94956 51.3331 1.90961 51.3857 1.90959H52.8712Z" fill="var(--fill-0, #231916)"/>
<path d="M62.0697 1.90959C62.1214 1.9096 62.164 1.94858 62.164 1.99834V3.46883C62.164 3.51762 62.2076 3.55852 62.2603 3.55852H64.8827C64.9353 3.55852 64.9778 3.59761 64.978 3.64727V4.81133C64.978 4.86012 64.9354 4.90195 64.8827 4.90195H62.2603C62.2076 4.90195 62.164 4.94089 62.164 4.99164V6.60226C62.164 6.65105 62.2076 6.69195 62.2603 6.69195H65.8365C65.8881 6.69195 65.9307 6.73204 65.9309 6.78163V7.94569C65.9306 7.99429 65.8881 8.03538 65.8365 8.03538H63.3972C63.3455 8.03538 63.3029 8.0753 63.3029 8.12507V10.0561C63.3029 10.3643 63.5693 10.6146 63.898 10.6148H64.1624C64.3025 10.6181 64.439 10.5712 64.5473 10.4821C64.6557 10.3929 64.7282 10.2674 64.7519 10.129L64.8677 9.30968C64.8736 9.27096 64.9043 9.24144 64.9425 9.234H64.9817L66.2569 9.49092C66.3057 9.50068 66.3375 9.54315 66.3326 9.58901L66.1616 11.067C66.1089 11.5168 65.7048 11.8573 65.2227 11.8573H62.2939C61.8578 11.8572 61.5035 11.5254 61.5035 11.1156V8.12507C61.5035 8.07536 61.4608 8.03548 61.4092 8.03538H60.3796C60.3269 8.03538 60.2844 8.0744 60.2844 8.1232C60.2648 9.16154 59.9888 10.8944 57.4901 11.7434L57.3994 11.7322C57.1535 11.6697 56.6041 11.4317 56.1952 11.2706C56.122 11.2414 56.1435 11.1411 56.2167 11.1118C57.9923 10.4132 58.5172 9.3487 58.4607 8.12226C58.4592 8.09819 58.4487 8.07495 58.4308 8.05873C58.413 8.0426 58.3894 8.03462 58.3654 8.03538H56.3493C56.2968 8.03538 56.2543 7.99526 56.2541 7.94569V6.78163C56.2543 6.73204 56.2968 6.69195 56.3493 6.69195H60.4021C60.4547 6.69185 60.4974 6.65197 60.4974 6.60226V4.99164C60.4974 4.94193 60.4547 4.90204 60.4021 4.90195H58.2075C58.1935 4.90181 58.1792 4.90449 58.1664 4.91036C58.1536 4.91626 58.1419 4.92477 58.1328 4.93558C57.9181 5.20103 57.6722 5.68906 57.3882 5.94082C57.3715 5.95549 57.3506 5.9646 57.3284 5.96604C57.3062 5.96745 57.2843 5.96076 57.2658 5.94829C57.0707 5.80972 56.4954 5.44015 56.2699 5.28499C56.2588 5.2776 56.2495 5.26768 56.2428 5.25602C56.2362 5.24432 56.2322 5.23116 56.2316 5.21772C56.2311 5.20429 56.2335 5.1907 56.2391 5.17848C56.2447 5.16627 56.2538 5.15597 56.2643 5.14765C57.4282 4.15936 57.8939 2.78177 57.9927 2.45144C57.9998 2.4305 58.0139 2.41243 58.0328 2.401C58.0516 2.38966 58.0737 2.3855 58.0954 2.38885L59.4006 2.54113C59.4278 2.54405 59.4474 2.56715 59.4417 2.59345C59.3689 2.88064 59.2742 3.16241 59.1586 3.4352C59.1336 3.49461 59.1783 3.5585 59.2464 3.55852H60.4021C60.4547 3.55842 60.4974 3.51854 60.4974 3.46883V1.99834C60.4974 1.94955 60.5409 1.90959 60.5936 1.90959H62.0697Z" fill="var(--fill-0, #231916)"/>
</g>
</g>
</svg>
