<svg preserveAspectRatio="none" width="100%" height="100%" overflow="visible" style="display: block;" viewBox="0 0 143.963 10.8384" fill="none" xmlns="http://www.w3.org/2000/svg">
<g id="About-Me">
<path id="&#229;&#189;&#162;&#231;&#138;&#182;" d="M35.5207 7.84573C35.9293 7.84573 36.2605 8.15353 36.2605 8.53323V10.1509C36.2605 10.5306 35.9293 10.8384 35.5207 10.8384H17.3713C16.9627 10.8384 16.6315 10.5306 16.6315 10.1509V8.53323C16.6315 8.15353 16.9627 7.84573 17.3713 7.84573H35.5207ZM9.61795 7.84573C10.0265 7.84573 10.3577 8.15353 10.3577 8.53323V10.1509C10.3577 10.5306 10.0265 10.8384 9.61795 10.8384H0.739796C0.331218 10.8384 0 10.5306 0 10.1509V8.53323C0 8.15353 0.331218 7.84573 0.739796 7.84573H9.61795ZM52.1522 7.84573C52.5608 7.84573 52.892 8.15353 52.892 8.53323V10.1509C52.892 10.5306 52.5608 10.8384 52.1522 10.8384H43.2741C42.8655 10.8384 42.5343 10.5306 42.5343 10.1509V8.53323C42.5343 8.15353 42.8655 7.84573 43.2741 7.84573H52.1522ZM73.1302 1.9534C74.0838 1.9534 74.9101 2.28993 75.6091 2.963C76.3081 3.63606 76.6576 4.47614 76.6576 5.48322C76.6576 6.52051 76.3054 7.38156 75.601 8.06638C74.8966 8.75119 74.0441 9.0936 73.0435 9.0936C72.032 9.0936 71.1823 8.75958 70.4941 8.09155C69.806 7.42352 69.4619 6.55911 69.4619 5.49832C69.4619 4.41403 69.8593 3.52948 70.654 2.84467C71.3439 2.25049 72.1693 1.9534 73.1302 1.9534ZM140.331 1.77716H140.575L140.576 7.38356L140.583 7.71608L140.597 7.9546L140.609 8.06138C140.611 8.0757 140.613 8.08827 140.616 8.09911C140.643 8.21828 140.686 8.30136 140.746 8.34836C140.805 8.39536 140.875 8.41885 140.954 8.41885C141.052 8.41885 141.182 8.39032 141.345 8.33325L141.404 8.50949L139.93 9.07849H139.681V8.41885C139.439 8.65384 139.202 8.82253 138.971 8.92491C138.74 9.0273 138.491 9.07849 138.223 9.07849C137.682 9.07849 137.208 8.86784 136.804 8.44655C136.399 8.02525 136.197 7.48395 136.197 6.82263C136.197 6.16132 136.421 5.55623 136.869 5.00737C137.317 4.45851 137.893 4.18408 138.597 4.18408C139.034 4.18408 139.396 4.31332 139.681 4.57181L139.68 3.45349L139.673 3.12802L139.665 2.9614L139.654 2.83505L139.64 2.74899C139.613 2.62814 139.571 2.5459 139.513 2.50226C139.455 2.45862 139.383 2.4368 139.296 2.4368C139.202 2.4368 139.078 2.46365 138.922 2.51736L138.852 2.34113L140.331 1.77716ZM143.362 7.96063C143.531 7.96063 143.674 8.01518 143.79 8.12428C143.905 8.23338 143.963 8.36514 143.963 8.51956C143.963 8.67398 143.904 8.80574 143.787 8.91484C143.67 9.02394 143.528 9.07849 143.362 9.07849C143.195 9.07849 143.054 9.02394 142.936 8.91484C142.819 8.80574 142.76 8.67398 142.76 8.51956C142.76 8.36179 142.819 8.22919 142.936 8.12177C143.054 8.01434 143.195 7.96063 143.362 7.96063ZM126.934 4.18912C127.685 4.18912 128.289 4.45432 128.744 4.98471C129.13 5.4379 129.323 5.95822 129.323 6.54568C129.323 6.95859 129.217 7.37653 129.004 7.7995C128.791 8.22247 128.497 8.54138 128.123 8.75623C127.749 8.97107 127.333 9.07849 126.874 9.07849C126.127 9.07849 125.532 8.80154 125.092 8.24765C124.72 7.78104 124.534 7.25735 124.534 6.67661C124.534 6.25363 124.646 5.83318 124.872 5.41524C125.098 4.9973 125.395 4.68846 125.764 4.48872C126.132 4.28899 126.522 4.18912 126.934 4.18912ZM106.598 4.18408C107.154 4.18408 107.611 4.35445 107.969 4.69518C108.326 5.0359 108.505 5.49161 108.505 6.06229H105.075C105.072 6.7471 105.251 7.28421 105.612 7.67361C105.973 8.06302 106.397 8.25772 106.885 8.25772C107.21 8.25772 107.493 8.17464 107.733 8.00847C107.973 7.8423 108.175 7.5578 108.337 7.15497L108.505 7.25568C108.429 7.71558 108.209 8.13435 107.844 8.51201C107.479 8.88966 107.022 9.07849 106.473 9.07849C105.877 9.07849 105.367 8.86281 104.943 8.43144C104.518 8.00008 104.306 7.42017 104.306 6.69171C104.306 5.90283 104.524 5.28767 104.959 4.84624C105.394 4.4048 105.941 4.18408 106.598 4.18408ZM110.804 7.96063C110.974 7.96063 111.117 8.01518 111.232 8.12428C111.348 8.23338 111.406 8.36514 111.406 8.51956C111.406 8.67398 111.347 8.80574 111.23 8.91484C111.112 9.02394 110.97 9.07849 110.804 9.07849C110.638 9.07849 110.496 9.02394 110.379 8.91484C110.261 8.80574 110.203 8.67398 110.203 8.51956C110.203 8.36179 110.261 8.22919 110.379 8.12177C110.496 8.01434 110.638 7.96063 110.804 7.96063ZM85.2163 7.96063C85.386 7.96063 85.5287 8.01518 85.6443 8.12428C85.7599 8.23338 85.8177 8.36514 85.8177 8.51956C85.8177 8.67398 85.759 8.80574 85.6416 8.91484C85.5242 9.02394 85.3824 9.07849 85.2163 9.07849C85.0501 9.07849 84.9083 9.02394 84.7909 8.91484C84.6735 8.80574 84.6148 8.67398 84.6148 8.51956C84.6148 8.36179 84.6735 8.22919 84.7909 8.12177C84.9083 8.01434 85.0501 7.96063 85.2163 7.96063ZM132.706 4.18912C133.147 4.18912 133.508 4.25793 133.79 4.39557C134.003 4.49963 134.16 4.66245 134.261 4.884C134.319 5.01231 134.351 5.25998 134.357 5.627L134.36 7.60418L134.367 7.91143L134.375 8.05317C134.378 8.092 134.382 8.12242 134.386 8.14442C134.404 8.24345 134.434 8.30975 134.475 8.34332C134.517 8.37689 134.565 8.39368 134.619 8.39368C134.677 8.39368 134.727 8.38193 134.77 8.35843C134.792 8.34596 134.82 8.32705 134.853 8.3017L134.969 8.20634L135.121 8.07234C135.149 8.04678 135.178 8.01962 135.209 7.99084V8.27283C134.805 8.77637 134.418 9.02814 134.05 9.02814C133.873 9.02814 133.732 8.97107 133.627 8.85693C133.522 8.7428 133.468 8.5481 133.465 8.27283L133.118 8.5183L132.843 8.70587L132.699 8.79875L132.586 8.86588C132.554 8.88397 132.527 8.89778 132.506 8.90729C132.31 8.99121 132.103 9.03317 131.882 9.03317C131.539 9.03317 131.257 8.92407 131.034 8.70587C130.812 8.48767 130.701 8.20065 130.701 7.84482C130.701 7.6199 130.755 7.4252 130.864 7.26071C131.012 7.03244 131.269 6.8176 131.636 6.61618C131.728 6.56583 131.834 6.51274 131.956 6.45694L132.221 6.34168C132.268 6.32187 132.317 6.30175 132.368 6.28133L132.693 6.15516L133.059 6.02172L133.465 5.88101V5.69974C133.465 5.23984 133.386 4.92429 133.229 4.75308C133.072 4.58188 132.843 4.49628 132.543 4.49628C132.316 4.49628 132.135 4.55334 132.002 4.66748C131.864 4.78162 131.796 4.91254 131.796 5.06024L131.807 5.35229C131.807 5.50671 131.764 5.62589 131.679 5.70981C131.594 5.79373 131.483 5.83569 131.346 5.83569C131.212 5.83569 131.103 5.79205 131.018 5.70477C130.933 5.61749 130.891 5.49832 130.891 5.34726C130.891 5.05856 131.05 4.79337 131.368 4.55167C131.686 4.30997 132.132 4.18912 132.706 4.18912ZM96.793 2.1095L96.8743 3.71075H96.6684C96.6287 3.42877 96.5745 3.22736 96.5059 3.10651C96.3939 2.9118 96.2449 2.7683 96.0588 2.67598C95.8728 2.58366 95.6281 2.53751 95.3246 2.53751H94.2897V7.75418C94.2897 8.1738 94.3385 8.43564 94.436 8.5397C94.5733 8.68069 94.7846 8.75119 95.07 8.75119H95.3246V8.9375H92.209V8.75119H92.4691C92.7798 8.75119 93.0001 8.66391 93.1302 8.48935C93.2096 8.38193 93.2494 8.13687 93.2494 7.75418V2.53751H92.3662C92.023 2.53751 91.7792 2.561 91.6347 2.608C91.4469 2.67178 91.2861 2.79431 91.1525 2.97559C91.0188 3.15686 90.9393 3.40192 90.914 3.71075H90.7081L90.7948 2.1095H96.793ZM79.4767 4.18912V5.16599C80.0582 4.51474 80.6127 4.18912 81.1401 4.18912C81.411 4.18912 81.644 4.25206 81.8391 4.37794C82.0342 4.50383 82.1895 4.71112 82.3051 4.99982C82.3845 5.20123 82.4243 5.51007 82.4243 5.92633V7.89517C82.4243 8.18723 82.4496 8.38528 82.5001 8.48935C82.5399 8.57327 82.604 8.63873 82.6925 8.68573C82.781 8.73273 82.9444 8.75623 83.1829 8.75623V8.9375H80.7283V8.75623H80.8313C81.0624 8.75623 81.2241 8.7235 81.3162 8.65804C81.4083 8.59258 81.4724 8.49606 81.5086 8.3685L81.518 8.31059L81.5248 8.2124L81.5302 7.89517V6.0069C81.5302 5.58728 81.4715 5.28264 81.3541 5.09297C81.2367 4.90331 81.039 4.80847 80.7608 4.80847C80.331 4.80847 79.9029 5.02667 79.4767 5.46307L79.4776 8.00666L79.485 8.19612C79.4943 8.33538 79.5114 8.42809 79.5363 8.47424C79.5868 8.57159 79.6564 8.64293 79.7449 8.68825C79.8334 8.73357 80.0131 8.75623 80.284 8.75623V8.9375H77.8295V8.75623H77.9378C78.1907 8.75623 78.3614 8.69664 78.4499 8.57747C78.5384 8.4583 78.5826 8.23087 78.5826 7.89517L78.5813 5.90249L78.5742 5.56204L78.5662 5.38875L78.5554 5.25841L78.542 5.17102C78.5149 5.05017 78.4733 4.96793 78.4174 4.92429C78.3614 4.88065 78.2864 4.85883 78.1925 4.85883C78.0913 4.85883 77.9703 4.884 77.8295 4.93436L77.7482 4.75308L79.2437 4.18912H79.4767ZM119.027 2.1095C119.807 2.1095 120.382 2.16237 120.753 2.26811C121.123 2.37386 121.437 2.56856 121.695 2.85222C121.954 3.13588 122.083 3.47409 122.083 3.86685C122.083 4.28647 121.936 4.6507 121.641 4.95953C121.347 5.26837 120.891 5.48657 120.273 5.61414L121.79 7.57291C122.137 8.02274 122.435 8.3215 122.684 8.46921C122.934 8.61691 123.259 8.71091 123.66 8.75119V8.9375H121.698L119.211 5.74506L118.855 5.7545H118.688L118.442 5.74506V7.729C118.442 8.15869 118.492 8.42557 118.593 8.52963C118.731 8.67734 118.937 8.75119 119.211 8.75119H119.498V8.9375H116.35V8.75119H116.627C116.937 8.75119 117.159 8.6572 117.293 8.46921C117.369 8.36514 117.407 8.11841 117.407 7.729V3.31799C117.407 2.88831 117.356 2.62143 117.255 2.51736C117.114 2.36966 116.905 2.29581 116.627 2.29581H116.35V2.1095H119.027ZM99.5525 1.77716V5.15088C99.9535 4.74133 100.271 4.47865 100.506 4.36284C100.741 4.24702 100.976 4.18912 101.211 4.18912C101.492 4.18912 101.734 4.26129 101.937 4.40564C102.139 4.54999 102.289 4.77658 102.386 5.08542C102.428 5.21432 102.456 5.40728 102.473 5.66429L102.485 5.94265L102.489 6.2637V7.89517C102.489 8.18723 102.515 8.38696 102.565 8.49438C102.601 8.57495 102.663 8.63873 102.749 8.68573C102.836 8.73273 102.995 8.75623 103.226 8.75623V8.9375H100.788V8.75623H100.902C101.133 8.75623 101.294 8.7235 101.384 8.65804C101.474 8.59258 101.537 8.49606 101.574 8.3685L101.581 8.3087L101.588 8.14584L101.59 7.98848L101.589 6.11783L101.582 5.85719C101.571 5.57733 101.545 5.38217 101.506 5.27173C101.45 5.11395 101.36 4.99562 101.238 4.91673C101.115 4.83784 100.967 4.7984 100.793 4.7984C100.616 4.7984 100.432 4.84204 100.241 4.92932C100.049 5.0166 99.8198 5.19284 99.5525 5.45804L99.5534 8.00792L99.5605 8.19989C99.5694 8.34125 99.5857 8.43606 99.6094 8.48431C99.6473 8.56152 99.7178 8.62614 99.8207 8.67818C99.9237 8.73021 100.102 8.75623 100.354 8.75623V8.9375H97.8945V8.75623C98.1148 8.75623 98.2882 8.72433 98.4146 8.66055C98.4869 8.62698 98.5447 8.5632 98.588 8.46921C98.6314 8.37521 98.6531 8.18387 98.6531 7.89517L98.6527 3.58212L98.6477 3.22644L98.641 3.03967L98.6316 2.89319L98.6195 2.78699C98.6172 2.77264 98.6149 2.75998 98.6124 2.74899C98.5853 2.62814 98.5438 2.5459 98.4878 2.50226C98.4318 2.45862 98.3568 2.4368 98.2629 2.4368C98.1871 2.4368 98.0643 2.46365 97.8945 2.51736L97.8186 2.34113L99.3033 1.77716H99.5525ZM73.0272 2.32098C72.3698 2.32098 71.8424 2.54758 71.445 3.00076C70.9502 3.56473 70.7027 4.39053 70.7027 5.47818C70.7027 6.59268 70.9592 7.45038 71.4721 8.05127C71.8659 8.50781 72.386 8.73608 73.0326 8.73608C73.7226 8.73608 74.2924 8.48599 74.7422 7.98581C75.1919 7.48563 75.4168 6.69675 75.4168 5.61917C75.4168 4.45096 75.1693 3.57983 74.6744 3.0058C74.2771 2.54926 73.728 2.32098 73.0272 2.32098ZM126.766 4.51642C126.574 4.51642 126.382 4.56929 126.189 4.67503C125.996 4.78078 125.839 4.96625 125.72 5.23145C125.601 5.49664 125.541 5.83737 125.541 6.25363C125.541 6.92502 125.685 7.50409 125.972 7.99084C126.259 8.4776 126.638 8.72098 127.107 8.72098C127.458 8.72098 127.747 8.5867 127.974 8.31815C128.202 8.04959 128.316 7.58801 128.316 6.93341C128.316 6.11432 128.126 5.46979 127.747 4.99982C127.49 4.67755 127.163 4.51642 126.766 4.51642ZM138.532 4.49628C138.214 4.49628 137.931 4.62888 137.682 4.89407C137.353 5.24319 137.189 5.75345 137.189 6.42484C137.189 7.10294 137.348 7.62242 137.665 7.98329C137.983 8.34416 138.337 8.5246 138.727 8.5246C139.056 8.5246 139.374 8.37186 139.681 8.06638V5.68967C139.659 5.4614 139.594 5.25327 139.486 5.06528C139.378 4.87729 139.234 4.73546 139.055 4.63979C138.876 4.54411 138.702 4.49628 138.532 4.49628ZM133.465 7.94553V6.18817L133.026 6.35358L132.791 6.44624L132.603 6.52479L132.462 6.58924C132.442 6.59881 132.424 6.60779 132.408 6.61618C132.123 6.76389 131.919 6.9183 131.796 7.07944C131.673 7.24057 131.612 7.41681 131.612 7.60815C131.612 7.84985 131.689 8.05043 131.845 8.20988C132 8.36934 132.179 8.44907 132.381 8.44907C132.655 8.44907 133.017 8.28122 133.465 7.94553ZM106.295 4.5416C105.995 4.5416 105.727 4.64986 105.49 4.86638C105.253 5.0829 105.115 5.38419 105.075 5.77023H107.373C107.355 5.47482 107.317 5.26669 107.259 5.14584C107.169 4.95786 107.034 4.81015 106.855 4.70273C106.677 4.59531 106.49 4.5416 106.295 4.5416ZM119.292 2.49219C119.083 2.49219 118.799 2.52408 118.442 2.58786V5.42783L118.745 5.43286C119.446 5.43286 119.974 5.29187 120.33 5.00989C120.686 4.72791 120.864 4.36871 120.864 3.93231C120.864 3.50598 120.72 3.15938 120.433 2.8925C120.146 2.62563 119.766 2.49219 119.292 2.49219ZM29.24 0C29.6486 0 29.9798 0.307804 29.9798 0.6875V2.30517C29.9798 2.68487 29.6486 2.99267 29.24 2.99267H23.652C23.2434 2.99267 22.9122 2.68487 22.9122 2.30517V0.6875C22.9122 0.307804 23.2434 0 23.652 0H29.24ZM52.1522 0C52.5608 0 52.892 0.307804 52.892 0.6875V2.30517C52.892 2.68487 52.5608 2.99267 52.1522 2.99267H37.0003C36.5918 2.99267 36.2605 2.68487 36.2605 2.30517V0.6875C36.2605 0.307804 36.5918 0 37.0003 0H52.1522ZM15.8917 0C16.3003 0 16.6315 0.307804 16.6315 0.6875V2.30517C16.6315 2.68487 16.3003 2.99267 15.8917 2.99267H0.739796C0.331218 2.99267 0 2.68487 0 2.30517V0.6875C0 0.307804 0.331218 0 0.739796 0H15.8917Z" fill="var(--fill-0, #4A4A4A)"/>
</g>
</svg>
