<svg preserveAspectRatio="none" width="100%" height="100%" overflow="visible" style="display: block;" viewBox="0 0 24 24" fill="none" xmlns="http://www.w3.org/2000/svg">
<g id="Frame 11">
<g id="Union">
<path d="M17.0904 15.7097H15.9962L15.011 16.4108L14.8571 15.7317H14.1129V8.52764H17.0904V15.7097Z" fill="var(--fill-0, #666666)"/>
<path fill-rule="evenodd" clip-rule="evenodd" d="M19.0213 2.42511C20.4312 2.42536 21.5754 3.56834 21.5754 4.97829V19.0208C21.5752 20.4306 20.4311 21.5746 19.0213 21.5749H4.97882C3.56885 21.5749 2.42494 20.4307 2.42472 19.0208V4.97829C2.42476 3.56821 3.56874 2.42515 4.97882 2.42511H19.0213ZM8.61706 5.74718C8.60924 5.74609 7.21439 5.5552 6.75578 7.34544C6.29599 9.14085 5.61758 10.1928 5.61758 10.1928C5.66034 10.1947 7.28684 10.2565 7.67588 8.50656H8.72703V11.66H6.77778C6.77778 11.66 5.69364 11.6379 5.69364 12.8422H8.58407C8.58318 12.8836 8.50919 15.8632 5.61758 18.13C5.67172 18.1539 8.8012 19.5059 9.84325 12.8422H12.4707V12.3162C12.4718 12.2975 12.5041 11.6605 11.8145 11.66H9.90923V8.48456H12.2306V7.87147C12.2306 7.87147 12.2732 7.34563 11.4415 7.34544H8.00397C8.00887 7.32436 8.20637 6.48226 8.61706 5.74718ZM9.55824 14.7905L11.6605 18.054C12.3511 16.9756 11.893 16.1922 11.8796 16.1698L10.4783 14.1335L9.55824 14.7905ZM12.9087 16.8928H14.2449L14.4199 18.054L16.2592 16.8928H18.3835V7.34544H12.9087V16.8928Z" fill="var(--fill-0, #666666)"/>
</g>
</g>
</svg>
