<svg preserveAspectRatio="none" width="100%" height="100%" overflow="visible" style="display: block;" viewBox="0 0 24 24" fill="none" xmlns="http://www.w3.org/2000/svg">
<g id="Frame 13">
<path id="Vector" d="M19.8564 5.99863L13.2003 2.17956C12.491 1.79765 11.3999 1.79765 10.6906 2.17956L4.08908 5.99863C3.37983 6.38053 2.83425 7.36258 2.83425 8.18095V15.8191C2.83425 16.6375 3.37983 17.5649 4.08908 18.0014L10.7452 21.8205C11.4544 22.2024 12.5456 22.2024 13.2548 21.8205L19.9109 18.0014C20.6202 17.6195 21.1658 16.6375 21.1658 15.8191V8.18095C21.1112 7.36258 20.5656 6.38053 19.8564 5.99863ZM14.1278 12C14.1278 14.4551 12.1637 16.4192 9.70857 16.4192C7.25345 16.4192 5.28936 14.4551 5.28936 12V8.61741C5.28936 8.01728 5.78039 7.58081 6.32597 7.58081C6.87155 7.58081 7.36257 8.07183 7.36257 8.61741V12C7.36257 13.3094 8.39917 14.346 9.70857 14.346C11.018 14.346 12.0546 13.3094 12.0546 12V8.61741C12.0546 8.01728 12.5456 7.58081 13.0912 7.58081C13.6913 7.58081 14.1278 8.07183 14.1278 8.61741V12ZM18.6561 15.3826C18.6561 15.9828 18.1651 16.4192 17.6195 16.4192C17.0194 16.4192 16.5829 15.9282 16.5829 15.3826V8.61741C16.5829 8.01728 17.0739 7.58081 17.6195 7.58081C18.2196 7.58081 18.6561 8.07183 18.6561 8.61741V15.3826Z" fill="var(--fill-0, #067EFF)"/>
</g>
</svg>
