<svg preserveAspectRatio="none" width="100%" height="100%" overflow="visible" style="display: block;" viewBox="0 0 24 24" fill="none" xmlns="http://www.w3.org/2000/svg">
<g id="Frame 12">
<g id="Union">
<path fill-rule="evenodd" clip-rule="evenodd" d="M16.6023 8.72021C20.2665 8.72021 23.5034 11.3602 23.5034 14.6413C23.5034 16.4734 22.2681 18.0919 20.6496 19.3272L21.2465 21.373L19.0312 20.1377C18.2207 20.3488 17.4128 20.5625 16.6023 20.5625C12.7244 20.5625 9.65699 17.9225 9.65699 14.6413C9.65699 11.4045 12.7244 8.72021 16.6023 8.72021ZM14.4509 11.9649C14.0651 11.9649 13.5323 12.3074 13.5323 12.8092C13.5323 13.3111 14.0677 13.6462 14.4509 13.6462C15.0894 13.6462 15.3644 13.2366 15.3644 12.8092C15.3644 12.4235 15.0477 11.9649 14.4509 11.9649ZM19.0312 11.8404C18.6455 11.8404 18.166 12.202 18.166 12.6216C18.166 13.0412 18.6455 13.4594 19.0312 13.4594C19.6333 13.4594 20.0111 13.0438 20.0111 12.6216C20.0111 12.2437 19.6333 11.8404 19.0312 11.8404Z" fill="var(--fill-0, #666666)"/>
<path fill-rule="evenodd" clip-rule="evenodd" d="M8.63279 2.62708C12.6384 2.62708 16.1332 5.05599 16.8551 8.3345C16.5997 8.2928 16.3443 8.2928 16.0889 8.2928C12.2136 8.2928 9.18789 11.1908 9.18528 14.7273C9.18528 15.3241 9.27129 15.8766 9.44068 16.4317C9.14098 16.4734 8.88558 16.4734 8.63018 16.4734C7.60858 16.4734 6.79807 16.2623 5.77647 16.0486L2.92275 17.4533L3.73326 15.0244C1.69006 13.6171 0.496448 11.7433 0.496448 9.52811C0.496448 5.69449 4.16067 2.62708 8.63279 2.62708ZM11.602 6.06481C11.0078 6.06481 10.4649 6.46069 10.4649 7.09919C10.4649 7.69339 10.9635 8.15085 11.602 8.15085C12.1988 8.15085 12.7218 7.696 12.7218 7.09919C12.7218 6.50239 12.2405 6.06481 11.602 6.06481ZM5.96654 5.95583C5.36453 5.95583 4.81741 6.3382 4.81741 6.97149C4.81741 7.56048 5.32283 7.99518 5.96654 7.99518C6.56856 7.99518 7.09517 7.56309 7.09256 6.97149C7.09256 6.38251 6.56856 5.95583 5.96654 5.95583Z" fill="var(--fill-0, #666666)"/>
</g>
</g>
</svg>
